<svg width="143" height="120" viewBox="0 0 143 120" fill="none" xmlns="http://www.w3.org/2000/svg">
<path d="M70.7168 48.9621C77.8868 48.9621 83.6979 43.151 83.6979 35.981C83.6979 28.811 77.8868 23 70.7168 23C63.5468 23 57.7358 28.811 57.7358 35.981C57.7358 43.151 63.5468 48.9621 70.7168 48.9621ZM79.8036 52.2074H78.1099C75.8585 53.2418 73.3536 53.83 70.7168 53.83C68.0801 53.83 65.5853 53.2418 63.3237 52.2074H61.6301C54.1051 52.2074 48 58.3125 48 65.8374V70.0563C48 72.7438 50.1804 74.9242 52.8679 74.9242H88.5658C91.2532 74.9242 93.4337 72.7438 93.4337 70.0563V65.8374C93.4337 58.3125 87.3285 52.2074 79.8036 52.2074Z" fill="white"/>
<path d="M130.85 0H11.8955C5.32819 0 0 5.03906 0 11.25V86.25C0 92.4609 5.32819 97.5 11.8955 97.5H59.4774L55.5123 108.75H37.6691C34.373 108.75 31.7213 111.258 31.7213 114.375C31.7213 117.492 34.373 120 37.6691 120H105.077C108.373 120 111.025 117.492 111.025 114.375C111.025 111.258 108.373 108.75 105.077 108.75H87.2336L83.2684 97.5H130.85C137.418 97.5 142.746 92.4609 142.746 86.25V11.25C142.746 5.03906 137.418 0 130.85 0ZM126.885 82.5H15.8607V15H126.885V82.5Z" fill="white"/>
</svg>
