<svg width="121" height="97" viewBox="0 0 121 97" fill="none" xmlns="http://www.w3.org/2000/svg">
<path d="M117.813 66.4585H114.792V46.0489C114.792 43.6511 113.829 41.3477 112.13 39.6485L93.2684 20.7872C91.5692 19.0879 89.2658 18.125 86.868 18.125H78.5418V9.06252C78.5418 4.05925 74.4826 0 69.4793 0H9.06252C4.05925 0 0 4.05925 0 9.06252V69.4793C0 74.4826 4.05925 78.5418 9.06252 78.5418H12.0834C12.0834 88.5484 20.2019 96.6669 30.2084 96.6669C40.2149 96.6669 48.3334 88.5484 48.3334 78.5418H72.5002C72.5002 88.5484 80.6187 96.6669 90.6252 96.6669C100.632 96.6669 108.75 88.5484 108.75 78.5418H117.813C119.474 78.5418 120.834 77.1825 120.834 75.521V69.4793C120.834 67.8179 119.474 66.4585 117.813 66.4585ZM30.2084 87.6044C25.2051 87.6044 21.1459 83.5451 21.1459 78.5418C21.1459 73.5386 25.2051 69.4793 30.2084 69.4793C35.2117 69.4793 39.2709 73.5386 39.2709 78.5418C39.2709 83.5451 35.2117 87.6044 30.2084 87.6044ZM90.6252 87.6044C85.6219 87.6044 81.5627 83.5451 81.5627 78.5418C81.5627 73.5386 85.6219 69.4793 90.6252 69.4793C95.6285 69.4793 99.6877 73.5386 99.6877 78.5418C99.6877 83.5451 95.6285 87.6044 90.6252 87.6044ZM105.729 48.3334H78.5418V27.1876H86.868L105.729 46.0489V48.3334Z" fill="white"/>
</svg>
