<svg width="120" height="120" viewBox="0 0 120 120" fill="none" xmlns="http://www.w3.org/2000/svg">
<path d="M25.6554 57.1981L57.197 25.6612L46.8565 15.3208L32.4006 29.7768C32.2282 29.9495 32.0234 30.0865 31.798 30.18C31.5726 30.2735 31.331 30.3216 31.0869 30.3216C30.8429 30.3216 30.6012 30.2735 30.3758 30.18C30.1504 30.0865 29.9457 29.9495 29.7733 29.7768L27.146 27.1495C26.4194 26.4229 26.4194 25.2464 27.146 24.5222L41.602 10.0662L33.7177 2.17965C30.8139 -0.724205 26.1077 -0.724205 23.2039 2.17965L2.17849 23.205C-0.723019 26.1089 -0.725363 30.815 2.17849 33.7189L25.6554 57.1981ZM116.701 29.8236C121.098 25.4269 121.096 18.2996 116.701 13.9029L106.096 3.29759C101.699 -1.0992 94.5697 -1.0992 90.1706 3.29759L79.3848 14.081L105.916 40.6117L116.701 29.8236ZM74.081 19.3871L4.47297 88.9858L0.0761842 114.167C-0.516773 117.563 2.44098 120.52 5.83936 119.923L31.0225 115.507L100.612 45.9155L74.081 19.3871ZM117.822 86.2835L109.937 78.3993L95.4814 92.8552C94.7548 93.5818 93.5783 93.5818 92.8541 92.8552L90.2268 90.2279C89.5026 89.5014 89.5026 88.3249 90.2268 87.6007L104.683 73.1447L94.3377 62.7996L62.7961 94.3365L86.2824 117.82C89.1862 120.724 93.8924 120.724 96.7962 117.82L117.822 96.7974C120.725 93.8935 120.725 89.1873 117.822 86.2835Z" fill="white"/>
</svg>
