<?xml version="1.0" encoding="utf-8"?>
<svg viewBox="38.561 124.208 224 48" xmlns="http://www.w3.org/2000/svg">
  <rect data-v-fde0c5aa="" fill="#51A4FB" x="0" y="0" width="300px" height="300px" class="logo-background-square"/>
  <g data-v-fde0c5aa="" id="509e6596-ef8b-4021-8a20-6cf624e49462" fill="#ffffff" transform="matrix(1.79796, 0, 0, 1.79796, 99.478149, 123.73745)">
    <path d="M0.73 14.35L8.43 14.35L8.43 11.75L7.22 11.75L7.22 13.57L3.30 13.57L3.30 9.70L5.88 9.70L5.88 10.77L6.82 10.77L6.82 7.85L5.88 7.85L5.88 8.92L3.30 8.92L3.30 5.36L7.10 5.36L7.10 7.00L8.29 7.00L8.29 4.58L0.73 4.58L0.73 5.31L1.78 5.31L1.78 13.62L0.73 13.62ZM9.93 14.35L13.66 14.35L13.66 13.62L12.38 13.62L12.38 9.21C12.38 8.50 13.17 7.67 13.92 7.67C14.07 7.67 14.15 7.69 14.24 7.70L14.24 7.74C14.03 7.77 13.86 8.01 13.86 8.37C13.86 8.83 14.21 9.17 14.77 9.17C15.30 9.17 15.65 8.79 15.65 8.18C15.65 7.38 15.08 6.93 14.20 6.93C13.20 6.93 12.67 7.59 12.39 8.20L12.33 8.20L12.33 6.93L9.93 7.41L9.93 7.97L10.93 8.16L10.93 13.62L9.93 13.62ZM18.20 5.63C18.76 5.63 19.10 5.25 19.10 4.76L19.10 4.68C19.10 4.20 18.76 3.82 18.20 3.82C17.63 3.82 17.29 4.20 17.29 4.68L17.29 4.76C17.29 5.25 17.63 5.63 18.20 5.63ZM16.48 14.35L19.94 14.35L19.94 13.62L18.93 13.62L18.93 6.93L16.48 7.41L16.48 7.97L17.49 8.16L17.49 13.62L16.48 13.62ZM24.44 14.52C26.07 14.52 26.98 13.54 27.33 12.56L26.78 12.22C26.40 12.95 25.80 13.48 24.67 13.48C23.38 13.48 22.58 12.56 22.58 11.12L22.58 9.97C22.58 8.62 23.48 7.66 24.75 7.66C25.31 7.66 25.66 7.76 25.87 7.87L25.87 7.91C25.49 8.08 25.24 8.40 25.24 8.83C25.24 9.34 25.58 9.76 26.19 9.76C26.80 9.76 27.17 9.37 27.17 8.72C27.17 7.69 26.18 6.93 24.58 6.93C22.50 6.93 21.01 8.40 21.01 10.72C21.01 12.96 22.25 14.52 24.44 14.52ZM30.81 14.35L32.28 14.35L34.40 6.50L34.45 6.50L36.65 14.35L38.11 14.35L40.43 5.31L41.16 5.31L41.16 4.58L38.22 4.58L38.22 5.31L39.45 5.31L37.67 12.74L37.62 12.74L35.43 4.58L34.02 4.58L31.91 12.74L31.85 12.74L30.09 5.31L31.32 5.31L31.32 4.58L27.76 4.58L27.76 5.31L28.49 5.31ZM43.64 5.63C44.20 5.63 44.53 5.25 44.53 4.76L44.53 4.68C44.53 4.20 44.20 3.82 43.64 3.82C43.06 3.82 42.73 4.20 42.73 4.68L42.73 4.76C42.73 5.25 43.06 5.63 43.64 5.63ZM41.92 14.35L45.37 14.35L45.37 13.62L44.37 13.62L44.37 6.93L41.92 7.41L41.92 7.97L42.92 8.16L42.92 13.62L41.92 13.62ZM46.51 14.35L49.97 14.35L49.97 13.62L48.96 13.62L48.96 9.21C48.96 8.32 49.80 7.90 50.57 7.90C51.66 7.90 52.15 8.50 52.15 9.74L52.15 13.62L51.14 13.62L51.14 14.35L54.60 14.35L54.60 13.62L53.59 13.62L53.59 9.65C53.59 7.84 52.89 6.93 51.10 6.93C49.92 6.93 49.21 7.62 48.97 8.22L48.92 8.22L48.92 6.93L46.51 7.41L46.51 7.97L47.52 8.16L47.52 13.62L46.51 13.62ZM55.55 14.35L59.01 14.35L59.01 13.62L58.00 13.62L58.00 11.90L59.16 10.71L61.03 13.62L60.16 13.62L60.16 14.35L63.39 14.35L63.39 13.62L62.66 13.62L60.14 9.79L62.08 7.83L63.08 7.83L63.08 7.10L59.92 7.10L59.92 7.83L60.93 7.83L59.18 9.69L58.07 10.93L58.00 10.93L58.00 3.57L55.55 4.05L55.55 4.61L56.56 4.80L56.56 13.62L55.55 13.62ZM64.30 14.35L68.61 14.35C71.26 14.35 73.14 12.71 73.14 9.46C73.14 6.22 71.26 4.58 68.61 4.58L64.30 4.58L64.30 5.31L65.35 5.31L65.35 13.62L64.30 13.62ZM66.88 5.36L68.42 5.36C70.32 5.36 71.44 6.57 71.44 8.51L71.44 10.42C71.44 12.36 70.32 13.57 68.42 13.57L66.88 13.57ZM77.88 14.52C79.52 14.52 80.49 13.55 80.84 12.57L80.29 12.22C79.93 12.96 79.27 13.48 78.13 13.48C76.86 13.48 76.02 12.59 76.02 11.10L76.02 10.71L80.99 10.71L80.99 10.35C80.99 8.34 79.79 6.93 77.80 6.93C75.87 6.93 74.45 8.46 74.45 10.72C74.45 12.98 75.70 14.52 77.88 14.52ZM76.02 9.80C76.02 8.53 76.65 7.69 77.80 7.69C78.97 7.69 79.48 8.55 79.48 9.83L79.48 10.00L76.02 10.00ZM84.88 14.35L85.97 14.35L88.55 7.83L89.28 7.83L89.28 7.10L86.66 7.10L86.66 7.83L87.61 7.83L85.81 12.88L85.75 12.88L83.87 7.83L84.83 7.83L84.83 7.10L81.59 7.10L81.59 7.83L82.32 7.83Z"/>
  </g>
  <g data-v-fde0c5aa="" id="a5ade4f1-9fdb-4cee-a36e-a82e69cf2a85" stroke="none" fill="#ffffff" transform="matrix(0.568936, 0, 0, 0.568936, 35.448509, 120.983704)">
    <path style="marker:none" d="M12 14c-2.216 0-4 1.784-4 4v50c0 2.216 1.784 4 4 4h76c2.216 0 4-1.784 4-4V18c0-2.216-1.784-4-4-4H12zm53.906 13.813a2 2 0 0 1 .063 0 2 2 0 0 1 1.937 2.75L65.937 37H67c1.057-.015 2.031.943 2.031 2s-.974 2.015-2.031 2h-2.313l-.906 3H65c1.057-.015 2.031.943 2.031 2s-.974 2.015-2.031 2h-2.469l-2.625 8.563a2 2 0 0 1-3.812 0L53.469 48H46.53l-2.625 8.563a2 2 0 0 1-3.812 0L37.469 48H35c-1.047.05-2.045-.859-2.094-1.906-.049-1.048.86-2.045 1.907-2.094h1.406l-.907-3H33c-1.047.05-2.045-.859-2.094-1.906-.049-1.048.86-2.045 1.907-2.094h1.25l-1.97-6.438a2 2 0 0 1 1.657-2.593 2 2 0 0 1 2.156 1.437L38.25 37h7.5l2.344-7.594a2 2 0 0 1 3.812 0L54.25 37h7.5l2.344-7.594a2 2 0 0 1 1.812-1.593zM50 36.75l-.063.25h.126L50 36.75zM39.469 41l.937 3h3.188l.937-3H39.47zm9.218 0l-.906 3h4.438l-.907-3h-2.624zm6.782 0l.937 3h3.188l.937-3H55.47zm-13.844 7L42 49.219 42.375 48h-.75zm16 0L58 49.219 58.375 48h-.75zM43 74v8h14v-8H43zm-6.094 10c-1.043.049-1.955 1.047-1.906 2.094.049 1.046 1.05 1.955 2.094 1.906h25.875c1.052.015 2.031-.944 2.031-2s-.979-2.015-2.031-2H36.906z" color="#000" overflow="visible"/>
  </g>
  <g data-v-fde0c5aa="" id="51565a40-0473-49fd-9978-77f93adcaaab" fill="#ffffff" transform="matrix(0.44574, 0, 0, 0.44574, 100.527672, 158.533356)">
    <path d="M0.59 7.91C0.59 11.31 2.95 12.87 5.54 12.87C7.32 12.87 9.10 11.90 9.14 11.59C9.31 10.29 9.37 9.70 9.37 9.66C9.37 9.56 9.32 9.52 9.16 9.51C9.10 9.51 9.04 9.49 9.00 9.49C8.89 9.49 8.83 9.53 8.81 9.70L8.62 11.33C8.61 11.45 7.50 12.24 5.94 12.24C3.81 12.24 2.10 10.29 2.10 7.94C2.10 5.42 3.53 3.54 5.53 3.54C7.38 3.54 8.72 5.01 8.72 5.17C8.72 5.29 8.67 6.40 8.67 6.45C8.67 6.59 8.71 6.64 8.97 6.64C9.17 6.64 9.24 6.62 9.24 6.44C9.24 5.73 9.30 3.92 9.30 3.67C9.30 3.47 9.18 3.44 8.97 3.44C8.75 3.44 8.72 3.50 8.72 3.67L8.72 4.05C8.72 4.16 8.68 4.16 8.55 4.06C8.27 3.86 7.29 3.04 5.63 3.04C2.79 3.04 0.59 4.96 0.59 7.91ZM17.75 3.51C17.75 3.75 17.84 3.77 18.00 3.77L18.54 3.77C18.59 3.77 18.59 4.12 18.59 4.55C18.59 5.66 18.58 8.96 18.58 9.42C18.58 11.13 18.83 12.80 21.69 12.80C22.76 12.80 23.93 12.38 24.58 12.00C24.84 11.86 25.13 11.72 25.21 11.72C25.48 11.72 25.75 12.74 26.08 12.74C26.40 12.74 26.42 12.35 26.42 12.25C26.42 11.96 26.47 10.08 26.52 8.16C26.57 6.12 26.56 3.77 26.67 3.77L26.99 3.77C27.22 3.77 27.29 3.75 27.29 3.56C27.29 3.32 27.24 3.26 27.05 3.26C26.91 3.26 26.38 3.30 25.96 3.30C25.54 3.30 24.74 3.26 24.51 3.26C24.33 3.26 24.23 3.28 24.23 3.51C24.23 3.75 24.35 3.77 24.51 3.77L25.21 3.77C25.28 3.77 25.30 4.30 25.30 4.87L25.30 9.14C25.30 11.19 25.30 11.12 24.96 11.34C24.57 11.61 23.76 12.08 22.58 12.08C20.61 12.08 19.81 11.17 19.81 9.41C19.81 8.82 19.88 3.77 19.99 3.77L20.90 3.77C21.13 3.77 21.17 3.75 21.17 3.56C21.17 3.32 21.15 3.26 20.96 3.26C20.64 3.26 19.75 3.30 19.33 3.30C18.91 3.30 18.23 3.26 18.00 3.26C17.82 3.26 17.75 3.28 17.75 3.51ZM35.53 5.77C35.53 9.07 40.52 8.20 40.52 10.65C40.52 11.59 39.68 12.31 38.70 12.31C37.87 12.31 36.27 11.83 36.25 11.47L36.16 10.15C36.15 9.97 36.08 9.91 35.90 9.91L35.83 9.91C35.62 9.91 35.62 10.00 35.62 10.12C35.62 10.32 35.73 11.66 35.76 12.17C35.77 12.38 37.03 12.85 38.57 12.85C40.14 12.85 41.75 11.87 41.75 10.11C41.75 6.79 36.78 7.87 36.78 5.32C36.78 4.31 37.56 3.56 38.60 3.56C39.62 3.56 40.71 4.58 40.71 4.89C40.71 5.01 40.67 5.73 40.67 5.78C40.67 5.92 40.71 5.99 40.98 5.99C41.22 5.99 41.23 5.94 41.23 5.75C41.23 5.04 41.31 3.68 41.31 3.53C41.31 3.30 41.27 3.29 41.01 3.29C40.78 3.29 40.77 3.32 40.75 3.53C40.75 3.61 40.74 3.78 40.70 3.78C40.64 3.78 40.56 3.74 40.49 3.68C39.69 3.14 39.07 3.08 38.57 3.08C37.04 3.08 35.53 4.17 35.53 5.77ZM49.31 5.01C49.31 5.17 49.49 5.17 49.62 5.17C49.77 5.17 49.81 5.15 49.83 4.97L49.94 3.89C49.95 3.81 50.50 3.75 51.25 3.75L53.24 3.75C53.30 3.75 53.33 4.35 53.33 4.97C53.33 6.43 53.27 12.18 53.14 12.18L52.28 12.18C52.05 12.18 52.01 12.19 52.01 12.39C52.01 12.63 52.02 12.68 52.22 12.68C52.54 12.68 53.52 12.64 53.94 12.64C54.36 12.64 55.30 12.68 55.62 12.68C55.79 12.68 55.82 12.61 55.82 12.40C55.82 12.24 55.79 12.18 55.62 12.18L54.63 12.18C54.60 12.18 54.60 11.76 54.60 11.31C54.60 9.56 54.68 5.96 54.68 5.92C54.70 5.18 54.70 3.75 54.80 3.75L56.41 3.75C57.12 3.75 57.95 3.78 57.95 3.85C57.95 3.99 57.90 4.90 57.90 4.97C57.90 5.12 57.97 5.17 58.16 5.17C58.35 5.17 58.42 5.17 58.42 5.03C58.42 3.93 58.48 3.40 58.48 3.14C58.48 2.94 58.39 2.94 58.20 2.94C58.04 2.94 57.99 2.98 57.97 3.16C57.97 3.23 57.33 3.28 56.49 3.28L51.49 3.28C50.83 3.28 50.02 3.28 50.02 3.21L50.02 3.07C50.02 2.94 49.90 2.94 49.80 2.94C49.57 2.94 49.55 3.00 49.53 3.19C49.48 3.89 49.31 4.97 49.31 5.01ZM65.74 8.15C65.74 11.17 68.08 12.80 70.34 12.80C73.12 12.80 75.10 10.89 75.10 8.06C75.10 5.33 73.35 3.11 70.55 3.11C67.94 3.11 65.74 5.10 65.74 8.15ZM67.14 7.77C67.14 5.64 68.43 3.58 70.41 3.58C72.65 3.58 73.72 5.81 73.72 7.94C73.72 10.08 72.62 12.32 70.35 12.32C68.36 12.32 67.14 10.28 67.14 7.77ZM83.13 12.39C83.13 12.63 83.16 12.68 83.36 12.68C83.59 12.68 84.10 12.64 84.52 12.64C84.94 12.64 85.43 12.68 85.75 12.68C85.92 12.68 85.95 12.61 85.95 12.40C85.95 12.24 85.92 12.18 85.75 12.18L84.78 12.18C84.73 12.18 84.71 11.54 84.71 10.79C84.71 8.96 84.76 6.13 84.83 4.28C84.85 3.88 84.88 3.91 85.02 4.27L88.28 12.32C88.38 12.54 88.45 12.74 88.56 12.74C88.66 12.74 88.73 12.63 88.82 12.45C89.15 11.79 89.33 11.75 89.60 11.09L92.19 4.47C92.32 4.16 92.36 4.02 92.37 4.47C92.40 5.66 92.44 8.47 92.44 9.74C92.44 10.99 92.40 12.18 92.34 12.18L91.71 12.18C91.49 12.18 91.42 12.19 91.42 12.39C91.42 12.63 91.45 12.68 91.64 12.68C91.84 12.68 92.54 12.64 93.14 12.64C93.56 12.64 94.32 12.68 94.64 12.68C94.81 12.68 94.84 12.61 94.84 12.40C94.84 12.22 94.78 12.18 94.61 12.18L93.88 12.18C93.77 12.18 93.67 8.44 93.67 6.03L93.67 4.77C93.67 4.17 93.70 3.77 93.74 3.70L94.40 3.70C94.63 3.70 94.67 3.68 94.67 3.49C94.67 3.25 94.65 3.19 94.46 3.19C94.14 3.19 93.45 3.23 93.03 3.23L92.36 3.23C92.13 3.23 92.11 3.29 91.99 3.58L89.25 10.72C89.17 10.95 89.14 11.02 89.03 10.74L86.09 3.40C86.02 3.22 85.96 3.19 85.82 3.19C85.74 3.19 85.25 3.23 84.94 3.23C84.43 3.23 83.58 3.19 83.38 3.19C83.24 3.19 83.24 3.26 83.24 3.47C83.24 3.64 83.24 3.70 83.38 3.70L84.08 3.70C84.35 3.70 84.35 3.72 84.35 3.84C84.35 4.82 84.14 9.94 84.10 10.79C84.06 11.55 84.06 12.18 84.00 12.18L83.43 12.18C83.20 12.18 83.13 12.19 83.13 12.39ZM112.60 7.91C112.60 11.31 114.97 12.87 117.56 12.87C119.34 12.87 121.11 11.90 121.16 11.59C121.32 10.29 121.38 9.70 121.38 9.66C121.38 9.56 121.34 9.52 121.17 9.51C121.11 9.51 121.06 9.49 121.02 9.49C120.90 9.49 120.85 9.53 120.82 9.70L120.64 11.33C120.62 11.45 119.52 12.24 117.95 12.24C115.82 12.24 114.11 10.29 114.11 7.94C114.11 5.42 115.54 3.54 117.54 3.54C119.39 3.54 120.74 5.01 120.74 5.17C120.74 5.29 120.68 6.40 120.68 6.45C120.68 6.59 120.72 6.64 120.99 6.64C121.18 6.64 121.25 6.62 121.25 6.44C121.25 5.73 121.31 3.92 121.31 3.67C121.31 3.47 121.20 3.44 120.99 3.44C120.76 3.44 120.74 3.50 120.74 3.67L120.74 4.05C120.74 4.16 120.69 4.16 120.57 4.06C120.29 3.86 119.31 3.04 117.64 3.04C114.80 3.04 112.60 4.96 112.60 7.91ZM129.84 8.15C129.84 11.17 132.17 12.80 134.43 12.80C137.21 12.80 139.19 10.89 139.19 8.06C139.19 5.33 137.44 3.11 134.64 3.11C132.03 3.11 129.84 5.10 129.84 8.15ZM131.24 7.77C131.24 5.64 132.52 3.58 134.50 3.58C136.74 3.58 137.82 5.81 137.82 7.94C137.82 10.08 136.71 12.32 134.44 12.32C132.45 12.32 131.24 10.28 131.24 7.77ZM147.22 12.46C147.22 12.63 147.24 12.70 147.42 12.70C147.57 12.70 148.81 12.64 149.20 12.64C150.05 12.64 150.93 12.70 151.79 12.70C154.41 12.70 156.80 11.07 156.80 7.91C156.80 4.89 154.46 3.07 151.42 3.07C150.86 3.07 149.60 3.23 148.57 3.23C148.09 3.23 147.63 3.22 147.57 3.22C147.39 3.22 147.38 3.32 147.38 3.49C147.38 3.68 147.45 3.70 147.57 3.70L148.54 3.67C148.57 3.67 148.57 4.20 148.57 4.72C148.57 5.91 148.48 12.21 148.40 12.21L147.50 12.21C147.32 12.21 147.22 12.22 147.22 12.46ZM149.80 11.40C149.80 9.46 149.80 7.52 149.81 5.60C149.81 5.03 149.86 3.61 149.90 3.60C150.19 3.53 150.78 3.51 151.13 3.51C153.69 3.51 155.30 5.75 155.30 7.73C155.30 8.95 155.26 12.25 150.58 12.25C150.32 12.25 149.91 12.25 149.81 12.21C149.80 12.19 149.80 11.79 149.80 11.40ZM164.77 12.39C164.77 12.63 164.81 12.68 165.00 12.68C165.33 12.68 166.08 12.64 166.80 12.64C167.45 12.64 168.25 12.68 168.48 12.68C168.64 12.68 168.67 12.61 168.67 12.40C168.67 12.24 168.64 12.18 168.48 12.18L167.51 12.18C167.41 12.18 167.38 9.55 167.38 7.76L167.38 5.87C167.38 5.14 167.41 3.70 167.51 3.70L168.42 3.70C168.64 3.70 168.67 3.68 168.67 3.49C168.67 3.25 168.64 3.19 168.48 3.19C168.15 3.19 167.48 3.23 166.82 3.23C166.01 3.23 165.30 3.19 165.07 3.19C164.89 3.19 164.82 3.21 164.82 3.44C164.82 3.68 164.91 3.70 165.07 3.70L166.00 3.70C166.04 3.70 166.11 4.79 166.11 5.71L166.11 7.08C166.11 8.92 166.10 12.18 165.98 12.18L165.06 12.18C164.84 12.18 164.77 12.19 164.77 12.39ZM176.57 12.39C176.57 12.63 176.58 12.68 176.78 12.68C176.96 12.68 177.34 12.64 177.95 12.64C178.58 12.64 179.14 12.68 179.47 12.68C179.63 12.68 179.63 12.61 179.63 12.40C179.63 12.24 179.63 12.18 179.47 12.18L178.26 12.18C178.22 12.18 178.21 11.54 178.21 10.79C178.21 9.46 178.22 7.48 178.22 5.99C178.22 5.25 178.22 4.84 178.23 4.28C178.23 4.02 178.30 4.14 178.43 4.28L185.32 12.66C185.40 12.75 185.49 12.89 185.60 12.89C185.71 12.89 185.78 12.77 185.78 12.54C185.78 12.39 185.95 6.65 185.96 4.48C185.96 4.06 185.99 3.70 186.02 3.70L186.65 3.70C186.87 3.70 186.93 3.68 186.93 3.49C186.93 3.25 186.93 3.19 186.73 3.19C186.54 3.19 186.10 3.23 185.54 3.23C184.93 3.23 184.13 3.19 184.03 3.19C183.86 3.19 183.86 3.26 183.86 3.47C183.86 3.64 183.86 3.70 184.03 3.70L185.33 3.70C185.35 3.70 185.35 4.33 185.35 4.44C185.35 5.85 185.37 8.33 185.37 9.70L185.37 10.29C185.37 10.57 185.36 10.65 185.14 10.37L179.45 3.39C179.34 3.25 179.31 3.19 179.14 3.19C179.06 3.19 178.68 3.23 178.37 3.23C178.08 3.23 177.00 3.19 176.81 3.19C176.64 3.19 176.61 3.26 176.61 3.47C176.61 3.64 176.64 3.70 176.81 3.70L177.72 3.70C177.72 4.17 177.67 8.53 177.60 10.79C177.58 11.69 177.59 12.18 177.48 12.18L176.83 12.18C176.61 12.18 176.57 12.19 176.57 12.39ZM195.03 7.91C195.03 11.40 197.40 12.89 199.99 12.89C201.88 12.89 203.88 11.89 203.88 11.58C203.88 11.12 203.90 10.68 203.90 10.33C203.90 9.81 203.91 9.56 204.04 9.56L204.47 9.56C204.61 9.56 204.62 9.39 204.62 9.30C204.62 9.18 204.61 9.06 204.47 9.06C204.25 9.06 203.88 9.10 203.21 9.10C202.76 9.10 202.02 9.07 201.33 9.06C201.19 9.06 201.19 9.24 201.19 9.35C201.19 9.45 201.22 9.56 201.35 9.56L202.57 9.56C202.61 9.56 202.66 9.87 202.66 10.33C202.66 10.82 202.65 11.41 202.62 11.65C202.61 11.76 201.96 12.39 200.38 12.39C198.14 12.39 196.55 10.29 196.55 7.94C196.55 5.42 198.10 3.54 200.10 3.54C201.99 3.54 203.17 4.87 203.17 5.03C203.17 5.15 203.11 6.12 203.11 6.17C203.11 6.31 203.15 6.36 203.42 6.36C203.62 6.36 203.69 6.33 203.69 6.15C203.69 5.43 203.73 3.75 203.73 3.56C203.73 3.36 203.63 3.33 203.42 3.33C203.20 3.33 203.17 3.39 203.17 3.56L203.17 3.91C203.17 3.99 203.13 4.02 203.00 3.92C202.72 3.72 201.73 3.08 200.16 3.08C197.32 3.08 195.03 4.79 195.03 7.91ZM222.67 5.77C222.67 9.07 227.65 8.20 227.65 10.65C227.65 11.59 226.81 12.31 225.83 12.31C225.01 12.31 223.41 11.83 223.38 11.47L223.30 10.15C223.29 9.97 223.22 9.91 223.03 9.91L222.96 9.91C222.75 9.91 222.75 10.00 222.75 10.12C222.75 10.32 222.87 11.66 222.89 12.17C222.91 12.38 224.17 12.85 225.71 12.85C227.28 12.85 228.89 11.87 228.89 10.11C228.89 6.79 223.92 7.87 223.92 5.32C223.92 4.31 224.70 3.56 225.74 3.56C226.76 3.56 227.85 4.58 227.85 4.89C227.85 5.01 227.81 5.73 227.81 5.78C227.81 5.92 227.85 5.99 228.12 5.99C228.35 5.99 228.37 5.94 228.37 5.75C228.37 5.04 228.45 3.68 228.45 3.53C228.45 3.30 228.41 3.29 228.14 3.29C227.92 3.29 227.91 3.32 227.89 3.53C227.89 3.61 227.88 3.78 227.84 3.78C227.78 3.78 227.70 3.74 227.63 3.68C226.83 3.14 226.21 3.08 225.71 3.08C224.18 3.08 222.67 4.17 222.67 5.77ZM236.78 8.15C236.78 11.17 239.12 12.80 241.37 12.80C244.16 12.80 246.13 10.89 246.13 8.06C246.13 5.33 244.38 3.11 241.58 3.11C238.98 3.11 236.78 5.10 236.78 8.15ZM238.18 7.77C238.18 5.64 239.47 3.58 241.44 3.58C243.68 3.58 244.76 5.81 244.76 7.94C244.76 10.08 243.66 12.32 241.39 12.32C239.40 12.32 238.18 10.28 238.18 7.77ZM254.24 12.39C254.24 12.63 254.27 12.68 254.46 12.68C254.79 12.68 255.75 12.64 256.17 12.64C256.59 12.64 260.95 12.68 261.27 12.68C261.53 12.68 261.60 12.66 261.62 12.49C261.67 12.08 261.91 10.72 261.91 10.60C261.91 10.47 261.76 10.44 261.59 10.43C261.49 10.42 261.41 10.46 261.39 10.56L261.23 11.76C261.18 12.05 261.17 12.03 260.95 12.04C260.79 12.05 258.29 12.12 256.86 12.12C256.82 12.12 256.77 11.38 256.77 10.54L256.77 6.66C256.77 5.40 256.79 3.70 256.89 3.70L257.87 3.70C258.10 3.70 258.13 3.63 258.13 3.44C258.13 3.23 258.12 3.19 257.88 3.19C257.56 3.19 256.62 3.23 256.20 3.23C255.78 3.23 254.84 3.19 254.62 3.19C254.39 3.19 254.34 3.22 254.34 3.44C254.34 3.65 254.38 3.70 254.58 3.70L255.40 3.70C255.44 3.70 255.47 4.23 255.47 4.90L255.47 8.13C255.47 10.07 255.44 12.18 255.36 12.18L254.52 12.18C254.30 12.18 254.24 12.21 254.24 12.39ZM269.53 3.51C269.53 3.75 269.61 3.77 269.78 3.77L270.31 3.77C270.37 3.77 270.37 4.12 270.37 4.55C270.37 5.66 270.35 8.96 270.35 9.42C270.35 11.13 270.61 12.80 273.46 12.80C274.54 12.80 275.70 12.38 276.36 12.00C276.61 11.86 276.91 11.72 276.99 11.72C277.26 11.72 277.52 12.74 277.86 12.74C278.18 12.74 278.19 12.35 278.19 12.25C278.19 11.96 278.25 10.08 278.29 8.16C278.35 6.12 278.33 3.77 278.45 3.77L278.77 3.77C278.99 3.77 279.06 3.75 279.06 3.56C279.06 3.32 279.02 3.26 278.82 3.26C278.68 3.26 278.15 3.30 277.73 3.30C277.31 3.30 276.51 3.26 276.29 3.26C276.11 3.26 276.01 3.28 276.01 3.51C276.01 3.75 276.12 3.77 276.29 3.77L276.99 3.77C277.06 3.77 277.07 4.30 277.07 4.87L277.07 9.14C277.07 11.19 277.07 11.12 276.74 11.34C276.35 11.61 275.53 12.08 274.36 12.08C272.38 12.08 271.59 11.17 271.59 9.41C271.59 8.82 271.66 3.77 271.77 3.77L272.68 3.77C272.90 3.77 272.94 3.75 272.94 3.56C272.94 3.32 272.93 3.26 272.73 3.26C272.41 3.26 271.53 3.30 271.11 3.30C270.69 3.30 270.00 3.26 269.78 3.26C269.60 3.26 269.53 3.28 269.53 3.51ZM286.83 5.01C286.83 5.17 287.01 5.17 287.14 5.17C287.29 5.17 287.34 5.15 287.35 4.97L287.46 3.89C287.48 3.81 288.02 3.75 288.78 3.75L290.77 3.75C290.82 3.75 290.85 4.35 290.85 4.97C290.85 6.43 290.79 12.18 290.67 12.18L289.80 12.18C289.58 12.18 289.53 12.19 289.53 12.39C289.53 12.63 289.55 12.68 289.74 12.68C290.07 12.68 291.05 12.64 291.47 12.64C291.89 12.64 292.82 12.68 293.15 12.68C293.31 12.68 293.34 12.61 293.34 12.40C293.34 12.24 293.31 12.18 293.15 12.18L292.15 12.18C292.12 12.18 292.12 11.76 292.12 11.31C292.12 9.56 292.21 5.96 292.21 5.92C292.22 5.18 292.22 3.75 292.32 3.75L293.93 3.75C294.64 3.75 295.47 3.78 295.47 3.85C295.47 3.99 295.43 4.90 295.43 4.97C295.43 5.12 295.50 5.17 295.68 5.17C295.88 5.17 295.95 5.17 295.95 5.03C295.95 3.93 296.00 3.40 296.00 3.14C296.00 2.94 295.92 2.94 295.72 2.94C295.57 2.94 295.51 2.98 295.50 3.16C295.50 3.23 294.85 3.28 294.01 3.28L289.02 3.28C288.36 3.28 287.55 3.28 287.55 3.21L287.55 3.07C287.55 2.94 287.42 2.94 287.32 2.94C287.10 2.94 287.07 3.00 287.06 3.19C287 3.89 286.83 4.97 286.83 5.01ZM303.62 12.39C303.62 12.63 303.66 12.68 303.86 12.68C304.18 12.68 304.93 12.64 305.65 12.64C306.31 12.64 307.10 12.68 307.33 12.68C307.50 12.68 307.52 12.61 307.52 12.40C307.52 12.24 307.50 12.18 307.33 12.18L306.36 12.18C306.26 12.18 306.24 9.55 306.24 7.76L306.24 5.87C306.24 5.14 306.26 3.70 306.36 3.70L307.27 3.70C307.50 3.70 307.52 3.68 307.52 3.49C307.52 3.25 307.50 3.19 307.33 3.19C307.01 3.19 306.33 3.23 305.68 3.23C304.86 3.23 304.15 3.19 303.93 3.19C303.74 3.19 303.67 3.21 303.67 3.44C303.67 3.68 303.76 3.70 303.93 3.70L304.85 3.70C304.89 3.70 304.96 4.79 304.96 5.71L304.96 7.08C304.96 8.92 304.95 12.18 304.84 12.18L303.91 12.18C303.69 12.18 303.62 12.19 303.62 12.39ZM315.49 8.15C315.49 11.17 317.83 12.80 320.08 12.80C322.87 12.80 324.84 10.89 324.84 8.06C324.84 5.33 323.09 3.11 320.29 3.11C317.69 3.11 315.49 5.10 315.49 8.15ZM316.89 7.77C316.89 5.64 318.18 3.58 320.15 3.58C322.39 3.58 323.47 5.81 323.47 7.94C323.47 10.08 322.36 12.32 320.10 12.32C318.11 12.32 316.89 10.28 316.89 7.77ZM332.95 12.39C332.95 12.63 332.96 12.68 333.16 12.68C333.34 12.68 333.72 12.64 334.33 12.64C334.96 12.64 335.52 12.68 335.85 12.68C336.01 12.68 336.01 12.61 336.01 12.40C336.01 12.24 336.01 12.18 335.85 12.18L334.64 12.18C334.60 12.18 334.59 11.54 334.59 10.79C334.59 9.46 334.60 7.48 334.60 5.99C334.60 5.25 334.60 4.84 334.61 4.28C334.61 4.02 334.68 4.14 334.81 4.28L341.70 12.66C341.78 12.75 341.87 12.89 341.98 12.89C342.09 12.89 342.16 12.77 342.16 12.54C342.16 12.39 342.33 6.65 342.34 4.48C342.34 4.06 342.37 3.70 342.40 3.70L343.03 3.70C343.25 3.70 343.31 3.68 343.31 3.49C343.31 3.25 343.31 3.19 343.11 3.19C342.92 3.19 342.48 3.23 341.92 3.23C341.31 3.23 340.51 3.19 340.41 3.19C340.24 3.19 340.24 3.26 340.24 3.47C340.24 3.64 340.24 3.70 340.41 3.70L341.71 3.70C341.73 3.70 341.73 4.33 341.73 4.44C341.73 5.85 341.75 8.33 341.75 9.70L341.75 10.29C341.75 10.57 341.74 10.65 341.52 10.37L335.83 3.39C335.72 3.25 335.69 3.19 335.52 3.19C335.44 3.19 335.06 3.23 334.75 3.23C334.46 3.23 333.38 3.19 333.19 3.19C333.02 3.19 332.99 3.26 332.99 3.47C332.99 3.64 333.02 3.70 333.19 3.70L334.10 3.70C334.10 4.17 334.05 8.53 333.98 10.79C333.96 11.69 333.97 12.18 333.86 12.18L333.21 12.18C332.99 12.18 332.95 12.19 332.95 12.39ZM351.55 5.77C351.55 9.07 356.54 8.20 356.54 10.65C356.54 11.59 355.70 12.31 354.72 12.31C353.89 12.31 352.30 11.83 352.27 11.47L352.18 10.15C352.17 9.97 352.10 9.91 351.92 9.91L351.85 9.91C351.64 9.91 351.64 10.00 351.64 10.12C351.64 10.32 351.75 11.66 351.78 12.17C351.79 12.38 353.05 12.85 354.59 12.85C356.16 12.85 357.77 11.87 357.77 10.11C357.77 6.79 352.80 7.87 352.80 5.32C352.80 4.31 353.58 3.56 354.62 3.56C355.64 3.56 356.73 4.58 356.73 4.89C356.73 5.01 356.69 5.73 356.69 5.78C356.69 5.92 356.73 5.99 357 5.99C357.24 5.99 357.25 5.94 357.25 5.75C357.25 5.04 357.34 3.68 357.34 3.53C357.34 3.30 357.29 3.29 357.03 3.29C356.80 3.29 356.79 3.32 356.78 3.53C356.78 3.61 356.76 3.78 356.72 3.78C356.66 3.78 356.58 3.74 356.51 3.68C355.71 3.14 355.10 3.08 354.59 3.08C353.07 3.08 351.55 4.17 351.55 5.77Z"/>
  </g>
</svg>