<svg width="361" height="82" viewBox="0 0 361 82" fill="none" xmlns="http://www.w3.org/2000/svg">
<path d="M0.254028 50V5.648H27.326V10.96H6.46203V24.144H25.022V29.328H6.46203V44.688H28.926V50H0.254028Z" fill="white"/>
<path d="M48.7205 16.016C49.2325 16.016 49.8085 16.0587 50.4485 16.144C51.1312 16.1867 51.7925 16.272 52.4325 16.4C53.0725 16.4853 53.6485 16.592 54.1605 16.72C54.7152 16.8053 55.1205 16.8907 55.3765 16.976L54.3525 22.16C53.8832 21.9893 53.0939 21.7973 51.9845 21.584C50.9179 21.328 49.5312 21.2 47.8245 21.2C46.7152 21.2 45.6059 21.328 44.4965 21.584C43.4299 21.7973 42.7259 21.9467 42.3845 22.032V50H36.4325V18.128C37.8405 17.616 39.5899 17.1467 41.6805 16.72C43.7712 16.2507 46.1179 16.016 48.7205 16.016Z" fill="white"/>
<path d="M67.072 50H61.12V16.72H67.072V50ZM64.064 10.704C62.9974 10.704 62.08 10.3627 61.312 9.68C60.5867 8.95466 60.224 7.99467 60.224 6.8C60.224 5.60533 60.5867 4.66667 61.312 3.984C62.08 3.25866 62.9974 2.896 64.064 2.896C65.1307 2.896 66.0267 3.25866 66.752 3.984C67.52 4.66667 67.904 5.60533 67.904 6.8C67.904 7.99467 67.52 8.95466 66.752 9.68C66.0267 10.3627 65.1307 10.704 64.064 10.704Z" fill="white"/>
<path d="M91.7715 50.768C89.0835 50.768 86.7155 50.3413 84.6675 49.488C82.6622 48.6347 80.9555 47.44 79.5475 45.904C78.1822 44.368 77.1582 42.5547 76.4755 40.464C75.7929 38.3307 75.4515 35.984 75.4515 33.424C75.4515 30.864 75.8142 28.5173 76.5395 26.384C77.3075 24.2507 78.3742 22.416 79.7395 20.88C81.1049 19.3013 82.7689 18.0853 84.7315 17.232C86.7369 16.336 88.9555 15.888 91.3875 15.888C92.8809 15.888 94.3742 16.016 95.8675 16.272C97.3609 16.528 98.7902 16.9333 100.156 17.488L98.8115 22.544C97.9155 22.1173 96.8702 21.776 95.6755 21.52C94.5235 21.264 93.2862 21.136 91.9635 21.136C88.6355 21.136 86.0755 22.1813 84.2835 24.272C82.5342 26.3627 81.6595 29.4133 81.6595 33.424C81.6595 35.216 81.8515 36.8587 82.2355 38.352C82.6622 39.8453 83.3022 41.1253 84.1555 42.192C85.0515 43.2587 86.1822 44.0907 87.5475 44.688C88.9129 45.2427 90.5769 45.52 92.5395 45.52C94.1182 45.52 95.5475 45.3707 96.8275 45.072C98.1075 44.7733 99.1102 44.4533 99.8355 44.112L100.668 49.104C100.326 49.3173 99.8355 49.5307 99.1955 49.744C98.5555 49.9147 97.8302 50.064 97.0195 50.192C96.2089 50.3627 95.3342 50.4907 94.3955 50.576C93.4995 50.704 92.6249 50.768 91.7715 50.768Z" fill="white"/>
<path d="M131.698 19.92C129.906 25.6373 128.092 30.928 126.258 35.792C124.423 40.656 122.588 45.392 120.754 50H114.546C112.284 43.472 110.279 36.5813 108.53 29.328C106.823 22.0747 105.223 14.1813 103.73 5.648H110.258C110.855 8.976 111.474 12.304 112.114 15.632C112.754 18.96 113.415 22.2027 114.098 25.36C114.78 28.4747 115.463 31.4613 116.146 34.32C116.828 37.1787 117.532 39.824 118.258 42.256C119.964 37.776 121.778 32.8693 123.698 27.536C125.618 22.16 127.41 16.6133 129.074 10.896H134.45C136.114 16.6133 137.927 22.16 139.89 27.536C141.852 32.8693 143.687 37.776 145.394 42.256C146.076 39.8667 146.759 37.2427 147.442 34.384C148.124 31.5253 148.786 28.5387 149.426 25.424C150.108 22.2667 150.77 19.024 151.41 15.696C152.05 12.3253 152.668 8.976 153.266 5.648H159.602C158.066 14.1813 156.423 22.0747 154.674 29.328C152.967 36.5813 151.004 43.472 148.786 50H142.578C140.7 45.392 138.866 40.656 137.074 35.792C135.282 30.928 133.49 25.6373 131.698 19.92Z" fill="white"/>
<path d="M172.447 50H166.495V16.72H172.447V50ZM169.439 10.704C168.372 10.704 167.455 10.3627 166.687 9.68C165.962 8.95466 165.599 7.99467 165.599 6.8C165.599 5.60533 165.962 4.66667 166.687 3.984C167.455 3.25866 168.372 2.896 169.439 2.896C170.506 2.896 171.402 3.25866 172.127 3.984C172.895 4.66667 173.279 5.60533 173.279 6.8C173.279 7.99467 172.895 8.95466 172.127 9.68C171.402 10.3627 170.506 10.704 169.439 10.704Z" fill="white"/>
<path d="M182.683 17.68C184.048 17.3387 185.861 16.976 188.123 16.592C190.384 16.208 192.987 16.016 195.931 16.016C198.576 16.016 200.773 16.4 202.523 17.168C204.272 17.8933 205.659 18.9387 206.683 20.304C207.749 21.6267 208.496 23.2267 208.923 25.104C209.349 26.9813 209.563 29.0507 209.563 31.312V50H203.611V32.592C203.611 30.544 203.461 28.7947 203.163 27.344C202.907 25.8933 202.459 24.72 201.819 23.824C201.179 22.928 200.325 22.288 199.259 21.904C198.192 21.4773 196.869 21.264 195.291 21.264C194.651 21.264 193.989 21.2853 193.307 21.328C192.624 21.3707 191.963 21.4347 191.323 21.52C190.725 21.5627 190.171 21.6267 189.659 21.712C189.189 21.7973 188.848 21.8613 188.635 21.904V50H182.683V17.68Z" fill="white"/>
<path d="M231.465 31.696C232.745 32.6773 234.089 33.8933 235.497 35.344C236.947 36.7947 238.355 38.3733 239.721 40.08C241.129 41.744 242.451 43.4507 243.689 45.2C244.926 46.9067 245.971 48.5067 246.825 50H239.849C238.953 48.5067 237.907 46.992 236.713 45.456C235.561 43.8773 234.345 42.384 233.065 40.976C231.785 39.5253 230.483 38.2027 229.161 37.008C227.838 35.8133 226.579 34.8107 225.385 34V50H219.433V1.36L225.385 0.335999V30.672C226.409 29.648 227.539 28.5173 228.777 27.28C230.014 26.0427 231.23 24.784 232.425 23.504C233.619 22.224 234.75 21.008 235.817 19.856C236.883 18.6613 237.801 17.616 238.569 16.72H245.545C244.563 17.7867 243.497 18.96 242.345 20.24C241.193 21.52 239.998 22.8213 238.761 24.144C237.523 25.424 236.265 26.7253 234.985 28.048C233.747 29.328 232.574 30.544 231.465 31.696Z" fill="white"/>
<path d="M289.67 27.792C289.67 31.632 289.073 34.9813 287.878 37.84C286.683 40.656 284.998 43.0027 282.822 44.88C280.646 46.7147 278.043 48.1013 275.014 49.04C271.985 49.936 268.657 50.384 265.03 50.384C263.238 50.384 261.254 50.2987 259.078 50.128C256.945 50 255.003 49.7227 253.254 49.296V6.288C255.003 5.86133 256.945 5.584 259.078 5.456C261.254 5.28533 263.238 5.2 265.03 5.2C268.657 5.2 271.985 5.66933 275.014 6.608C278.043 7.504 280.646 8.89067 282.822 10.768C284.998 12.6027 286.683 14.9493 287.878 17.808C289.073 20.624 289.67 23.952 289.67 27.792ZM265.542 44.944C271.43 44.944 275.825 43.4507 278.726 40.464C281.627 37.4347 283.078 33.2107 283.078 27.792C283.078 22.3733 281.627 18.1707 278.726 15.184C275.825 12.1547 271.43 10.64 265.542 10.64C263.793 10.64 262.427 10.6613 261.446 10.704C260.507 10.7467 259.846 10.7893 259.462 10.832V44.752C259.846 44.7947 260.507 44.8373 261.446 44.88C262.427 44.9227 263.793 44.944 265.542 44.944Z" fill="white"/>
<path d="M296.639 33.424C296.639 30.48 297.066 27.92 297.919 25.744C298.772 23.5253 299.903 21.6907 301.311 20.24C302.719 18.7893 304.34 17.7013 306.175 16.976C308.01 16.2507 309.887 15.888 311.807 15.888C316.287 15.888 319.722 17.296 322.111 20.112C324.5 22.8853 325.695 27.1307 325.695 32.848C325.695 33.104 325.695 33.4453 325.695 33.872C325.695 34.256 325.674 34.6187 325.631 34.96H302.847C303.103 38.416 304.106 41.04 305.855 42.832C307.604 44.624 310.335 45.52 314.047 45.52C316.138 45.52 317.887 45.3493 319.295 45.008C320.746 44.624 321.834 44.2613 322.559 43.92L323.391 48.912C322.666 49.296 321.386 49.7013 319.551 50.128C317.759 50.5547 315.711 50.768 313.407 50.768C310.506 50.768 307.988 50.3413 305.855 49.488C303.764 48.592 302.036 47.376 300.671 45.84C299.306 44.304 298.282 42.4907 297.599 40.4C296.959 38.2667 296.639 35.9413 296.639 33.424ZM319.487 30.16C319.53 27.472 318.847 25.2747 317.439 23.568C316.074 21.8187 314.175 20.944 311.743 20.944C310.378 20.944 309.162 21.2213 308.095 21.776C307.071 22.288 306.196 22.9707 305.471 23.824C304.746 24.6773 304.17 25.6587 303.743 26.768C303.359 27.8773 303.103 29.008 302.975 30.16H319.487Z" fill="white"/>
<path d="M360.229 16.72C358.565 22.9493 356.602 28.9227 354.341 34.64C352.122 40.3573 349.968 45.4773 347.877 50H342.501C340.41 45.4773 338.234 40.3573 335.973 34.64C333.754 28.9227 331.813 22.9493 330.149 16.72H336.549C337.061 18.8107 337.658 21.0507 338.341 23.44C339.066 25.7867 339.813 28.1333 340.581 30.48C341.392 32.784 342.202 35.024 343.013 37.2C343.824 39.376 344.592 41.3173 345.317 43.024C346.042 41.3173 346.81 39.376 347.621 37.2C348.432 35.024 349.221 32.784 349.989 30.48C350.8 28.1333 351.546 25.7867 352.229 23.44C352.954 21.0507 353.573 18.8107 354.085 16.72H360.229Z" fill="white"/>
<path d="M24.9261 78.3C23.9528 78.3 23.0661 78.14 22.2661 77.82C21.4661 77.5 20.7795 77.0333 20.2061 76.42C19.6328 75.8067 19.1861 75.0533 18.8661 74.16C18.5595 73.2533 18.4061 72.22 18.4061 71.06C18.4061 69.9 18.5795 68.8733 18.9261 67.98C19.2861 67.0733 19.7661 66.3133 20.3661 65.7C20.9661 65.0867 21.6661 64.62 22.4661 64.3C23.2661 63.98 24.1195 63.82 25.0261 63.82C25.5995 63.82 26.1128 63.86 26.5661 63.94C27.0328 64.02 27.4328 64.1133 27.7661 64.22C28.1128 64.3267 28.3928 64.4333 28.6061 64.54C28.8195 64.6467 28.9661 64.7267 29.0461 64.78L28.4861 66.38C28.3661 66.3 28.1928 66.2133 27.9661 66.12C27.7395 66.0267 27.4795 65.9333 27.1861 65.84C26.9061 65.7467 26.5928 65.6733 26.2461 65.62C25.9128 65.5533 25.5728 65.52 25.2261 65.52C24.4928 65.52 23.8328 65.6467 23.2461 65.9C22.6595 66.1533 22.1595 66.52 21.7461 67C21.3328 67.48 21.0128 68.0667 20.7861 68.76C20.5728 69.44 20.4661 70.2067 20.4661 71.06C20.4661 71.8867 20.5595 72.64 20.7461 73.32C20.9461 74 21.2395 74.5867 21.6261 75.08C22.0128 75.56 22.4928 75.9333 23.0661 76.2C23.6528 76.4667 24.3328 76.6 25.1061 76.6C25.9995 76.6 26.7395 76.5067 27.3261 76.32C27.9128 76.1333 28.3528 75.9667 28.6461 75.82L29.1461 77.42C29.0528 77.4867 28.8861 77.5733 28.6461 77.68C28.4061 77.7733 28.1061 77.8667 27.7461 77.96C27.3861 78.0533 26.9661 78.1333 26.4861 78.2C26.0061 78.2667 25.4861 78.3 24.9261 78.3Z" fill="white"/>
<path d="M44.1574 77.7C43.7307 77.8067 43.164 77.92 42.4574 78.04C41.764 78.16 40.9574 78.22 40.0374 78.22C39.2374 78.22 38.564 78.1067 38.0174 77.88C37.4707 77.64 37.0307 77.3067 36.6974 76.88C36.364 76.4533 36.124 75.9533 35.9774 75.38C35.8307 74.7933 35.7574 74.1467 35.7574 73.44V67.6H37.6174V73.04C37.6174 74.3067 37.8174 75.2133 38.2174 75.76C38.6174 76.3067 39.2907 76.58 40.2374 76.58C40.4374 76.58 40.644 76.5733 40.8574 76.56C41.0707 76.5467 41.2707 76.5333 41.4574 76.52C41.644 76.4933 41.8107 76.4733 41.9574 76.46C42.1174 76.4333 42.2307 76.4067 42.2974 76.38V67.6H44.1574V77.7Z" fill="white"/>
<path d="M54.4107 76.66C55.1707 76.66 55.7307 76.56 56.0907 76.36C56.464 76.16 56.6507 75.84 56.6507 75.4C56.6507 74.9467 56.4707 74.5867 56.1107 74.32C55.7507 74.0533 55.1573 73.7533 54.3307 73.42C53.9307 73.26 53.544 73.1 53.1707 72.94C52.8107 72.7667 52.4973 72.5667 52.2307 72.34C51.964 72.1133 51.7507 71.84 51.5907 71.52C51.4307 71.2 51.3507 70.8067 51.3507 70.34C51.3507 69.42 51.6907 68.6933 52.3707 68.16C53.0507 67.6133 53.9773 67.34 55.1507 67.34C55.444 67.34 55.7373 67.36 56.0307 67.4C56.324 67.4267 56.5973 67.4667 56.8507 67.52C57.104 67.56 57.324 67.6067 57.5107 67.66C57.7107 67.7133 57.864 67.76 57.9707 67.8L57.6307 69.4C57.4307 69.2933 57.1173 69.1867 56.6907 69.08C56.264 68.96 55.7507 68.9 55.1507 68.9C54.6307 68.9 54.1773 69.0067 53.7907 69.22C53.404 69.42 53.2107 69.74 53.2107 70.18C53.2107 70.4067 53.2507 70.6067 53.3307 70.78C53.424 70.9533 53.5573 71.1133 53.7307 71.26C53.9173 71.3933 54.144 71.52 54.4107 71.64C54.6773 71.76 54.9973 71.8867 55.3707 72.02C55.864 72.2067 56.304 72.3933 56.6907 72.58C57.0773 72.7533 57.404 72.96 57.6707 73.2C57.9507 73.44 58.164 73.7333 58.3107 74.08C58.4573 74.4133 58.5307 74.8267 58.5307 75.32C58.5307 76.28 58.1707 77.0067 57.4507 77.5C56.744 77.9933 55.7307 78.24 54.4107 78.24C53.4907 78.24 52.7707 78.16 52.2507 78C51.7307 77.8533 51.3773 77.74 51.1907 77.66L51.5307 76.06C51.744 76.14 52.084 76.26 52.5507 76.42C53.0173 76.58 53.6373 76.66 54.4107 76.66Z" fill="white"/>
<path d="M67.2853 67.6H71.2253V69.16H67.2853V73.96C67.2853 74.48 67.3253 74.9133 67.4053 75.26C67.4853 75.5933 67.6053 75.86 67.7653 76.06C67.9253 76.2467 68.1253 76.38 68.3653 76.46C68.6053 76.54 68.8853 76.58 69.2053 76.58C69.7653 76.58 70.212 76.52 70.5453 76.4C70.892 76.2667 71.132 76.1733 71.2653 76.12L71.6253 77.66C71.4387 77.7533 71.112 77.8667 70.6453 78C70.1787 78.1467 69.6453 78.22 69.0453 78.22C68.3387 78.22 67.752 78.1333 67.2853 77.96C66.832 77.7733 66.4653 77.5 66.1853 77.14C65.9053 76.78 65.7053 76.34 65.5853 75.82C65.4787 75.2867 65.4253 74.6733 65.4253 73.98V64.7L67.2853 64.38V67.6Z" fill="white"/>
<path d="M87.4011 72.8C87.4011 73.6267 87.2811 74.3733 87.0411 75.04C86.8011 75.7067 86.4611 76.28 86.0211 76.76C85.5945 77.24 85.0811 77.6133 84.4811 77.88C83.8811 78.1333 83.2278 78.26 82.5211 78.26C81.8145 78.26 81.1611 78.1333 80.5611 77.88C79.9611 77.6133 79.4411 77.24 79.0011 76.76C78.5745 76.28 78.2411 75.7067 78.0011 75.04C77.7611 74.3733 77.6411 73.6267 77.6411 72.8C77.6411 71.9867 77.7611 71.2467 78.0011 70.58C78.2411 69.9 78.5745 69.32 79.0011 68.84C79.4411 68.36 79.9611 67.9933 80.5611 67.74C81.1611 67.4733 81.8145 67.34 82.5211 67.34C83.2278 67.34 83.8811 67.4733 84.4811 67.74C85.0811 67.9933 85.5945 68.36 86.0211 68.84C86.4611 69.32 86.8011 69.9 87.0411 70.58C87.2811 71.2467 87.4011 71.9867 87.4011 72.8ZM85.4611 72.8C85.4611 71.6267 85.1945 70.7 84.6611 70.02C84.1411 69.3267 83.4278 68.98 82.5211 68.98C81.6145 68.98 80.8945 69.3267 80.3611 70.02C79.8411 70.7 79.5811 71.6267 79.5811 72.8C79.5811 73.9733 79.8411 74.9067 80.3611 75.6C80.8945 76.28 81.6145 76.62 82.5211 76.62C83.4278 76.62 84.1411 76.28 84.6611 75.6C85.1945 74.9067 85.4611 73.9733 85.4611 72.8Z" fill="white"/>
<path d="M94.6469 67.9C95.0736 67.7933 95.6336 67.68 96.3269 67.56C97.0336 67.44 97.8469 67.38 98.7669 67.38C99.4336 67.38 99.9936 67.4733 100.447 67.66C100.9 67.8333 101.28 68.0933 101.587 68.44C101.68 68.3733 101.827 68.28 102.027 68.16C102.227 68.04 102.474 67.9267 102.767 67.82C103.06 67.7 103.387 67.6 103.747 67.52C104.107 67.4267 104.494 67.38 104.907 67.38C105.707 67.38 106.36 67.5 106.867 67.74C107.374 67.9667 107.767 68.2933 108.047 68.72C108.34 69.1467 108.534 69.6533 108.627 70.24C108.734 70.8267 108.787 71.4667 108.787 72.16V78H106.927V72.56C106.927 71.9467 106.894 71.42 106.827 70.98C106.774 70.54 106.66 70.1733 106.487 69.88C106.327 69.5867 106.1 69.3733 105.807 69.24C105.527 69.0933 105.16 69.02 104.707 69.02C104.08 69.02 103.56 69.1067 103.147 69.28C102.747 69.44 102.474 69.5867 102.327 69.72C102.434 70.0667 102.514 70.4467 102.567 70.86C102.62 71.2733 102.647 71.7067 102.647 72.16V78H100.787V72.56C100.787 71.9467 100.754 71.42 100.687 70.98C100.62 70.54 100.5 70.1733 100.327 69.88C100.167 69.5867 99.9402 69.3733 99.6469 69.24C99.3669 69.0933 99.0069 69.02 98.5669 69.02C98.3802 69.02 98.1802 69.0267 97.9669 69.04C97.7536 69.0533 97.5469 69.0733 97.3469 69.1C97.1602 69.1133 96.9869 69.1333 96.8269 69.16C96.6669 69.1867 96.5602 69.2067 96.5069 69.22V78H94.6469V67.9Z" fill="white"/>
<path d="M127.211 78.3C126.238 78.3 125.351 78.14 124.551 77.82C123.751 77.5 123.065 77.0333 122.491 76.42C121.918 75.8067 121.471 75.0533 121.151 74.16C120.845 73.2533 120.691 72.22 120.691 71.06C120.691 69.9 120.865 68.8733 121.211 67.98C121.571 67.0733 122.051 66.3133 122.651 65.7C123.251 65.0867 123.951 64.62 124.751 64.3C125.551 63.98 126.405 63.82 127.311 63.82C127.885 63.82 128.398 63.86 128.851 63.94C129.318 64.02 129.718 64.1133 130.051 64.22C130.398 64.3267 130.678 64.4333 130.891 64.54C131.105 64.6467 131.251 64.7267 131.331 64.78L130.771 66.38C130.651 66.3 130.478 66.2133 130.251 66.12C130.025 66.0267 129.765 65.9333 129.471 65.84C129.191 65.7467 128.878 65.6733 128.531 65.62C128.198 65.5533 127.858 65.52 127.511 65.52C126.778 65.52 126.118 65.6467 125.531 65.9C124.945 66.1533 124.445 66.52 124.031 67C123.618 67.48 123.298 68.0667 123.071 68.76C122.858 69.44 122.751 70.2067 122.751 71.06C122.751 71.8867 122.845 72.64 123.031 73.32C123.231 74 123.525 74.5867 123.911 75.08C124.298 75.56 124.778 75.9333 125.351 76.2C125.938 76.4667 126.618 76.6 127.391 76.6C128.285 76.6 129.025 76.5067 129.611 76.32C130.198 76.1333 130.638 75.9667 130.931 75.82L131.431 77.42C131.338 77.4867 131.171 77.5733 130.931 77.68C130.691 77.7733 130.391 77.8667 130.031 77.96C129.671 78.0533 129.251 78.1333 128.771 78.2C128.291 78.2667 127.771 78.3 127.211 78.3Z" fill="white"/>
<path d="M147.343 72.8C147.343 73.6267 147.223 74.3733 146.983 75.04C146.743 75.7067 146.403 76.28 145.963 76.76C145.536 77.24 145.023 77.6133 144.423 77.88C143.823 78.1333 143.169 78.26 142.463 78.26C141.756 78.26 141.103 78.1333 140.503 77.88C139.903 77.6133 139.383 77.24 138.943 76.76C138.516 76.28 138.183 75.7067 137.943 75.04C137.703 74.3733 137.583 73.6267 137.583 72.8C137.583 71.9867 137.703 71.2467 137.943 70.58C138.183 69.9 138.516 69.32 138.943 68.84C139.383 68.36 139.903 67.9933 140.503 67.74C141.103 67.4733 141.756 67.34 142.463 67.34C143.169 67.34 143.823 67.4733 144.423 67.74C145.023 67.9933 145.536 68.36 145.963 68.84C146.403 69.32 146.743 69.9 146.983 70.58C147.223 71.2467 147.343 71.9867 147.343 72.8ZM145.403 72.8C145.403 71.6267 145.136 70.7 144.603 70.02C144.083 69.3267 143.369 68.98 142.463 68.98C141.556 68.98 140.836 69.3267 140.303 70.02C139.783 70.7 139.523 71.6267 139.523 72.8C139.523 73.9733 139.783 74.9067 140.303 75.6C140.836 76.28 141.556 76.62 142.463 76.62C143.369 76.62 144.083 76.28 144.603 75.6C145.136 74.9067 145.403 73.9733 145.403 72.8Z" fill="white"/>
<path d="M161.308 69.8C161.082 69.6133 160.755 69.4333 160.328 69.26C159.902 69.0867 159.435 69 158.928 69C158.395 69 157.935 69.1 157.548 69.3C157.175 69.4867 156.868 69.7533 156.628 70.1C156.388 70.4333 156.215 70.8333 156.108 71.3C156.002 71.7667 155.948 72.2667 155.948 72.8C155.948 74.0133 156.248 74.9533 156.848 75.62C157.448 76.2733 158.248 76.6 159.248 76.6C159.755 76.6 160.175 76.58 160.508 76.54C160.855 76.4867 161.122 76.4333 161.308 76.38V69.8ZM161.308 62.8L163.168 62.48V77.7C162.742 77.82 162.195 77.94 161.528 78.06C160.862 78.18 160.095 78.24 159.228 78.24C158.428 78.24 157.708 78.1133 157.068 77.86C156.428 77.6067 155.882 77.2467 155.428 76.78C154.975 76.3133 154.622 75.7467 154.368 75.08C154.128 74.4 154.008 73.64 154.008 72.8C154.008 72 154.108 71.2667 154.308 70.6C154.522 69.9333 154.828 69.36 155.228 68.88C155.628 68.4 156.115 68.0267 156.688 67.76C157.275 67.4933 157.942 67.36 158.688 67.36C159.288 67.36 159.815 67.44 160.268 67.6C160.735 67.76 161.082 67.9133 161.308 68.06V62.8Z" fill="white"/>
<path d="M172.855 78H170.995V67.6H172.855V78ZM171.915 65.72C171.581 65.72 171.295 65.6133 171.055 65.4C170.828 65.1733 170.715 64.8733 170.715 64.5C170.715 64.1267 170.828 63.8333 171.055 63.62C171.295 63.3933 171.581 63.28 171.915 63.28C172.248 63.28 172.528 63.3933 172.755 63.62C172.995 63.8333 173.115 64.1267 173.115 64.5C173.115 64.8733 172.995 65.1733 172.755 65.4C172.528 65.6133 172.248 65.72 171.915 65.72Z" fill="white"/>
<path d="M180.682 67.9C181.109 67.7933 181.675 67.68 182.382 67.56C183.089 67.44 183.902 67.38 184.822 67.38C185.649 67.38 186.335 67.5 186.882 67.74C187.429 67.9667 187.862 68.2933 188.182 68.72C188.515 69.1333 188.749 69.6333 188.882 70.22C189.015 70.8067 189.082 71.4533 189.082 72.16V78H187.222V72.56C187.222 71.92 187.175 71.3733 187.082 70.92C187.002 70.4667 186.862 70.1 186.662 69.82C186.462 69.54 186.195 69.34 185.862 69.22C185.529 69.0867 185.115 69.02 184.622 69.02C184.422 69.02 184.215 69.0267 184.002 69.04C183.789 69.0533 183.582 69.0733 183.382 69.1C183.195 69.1133 183.022 69.1333 182.862 69.16C182.715 69.1867 182.609 69.2067 182.542 69.22V78H180.682V67.9Z" fill="white"/>
<path d="M203.315 76.96C203.155 77.0667 202.842 77.2067 202.375 77.38C201.922 77.54 201.389 77.62 200.775 77.62C200.149 77.62 199.555 77.52 198.995 77.32C198.449 77.12 197.969 76.8133 197.555 76.4C197.142 75.9733 196.815 75.4467 196.575 74.82C196.335 74.1933 196.215 73.4467 196.215 72.58C196.215 71.82 196.329 71.1267 196.555 70.5C196.782 69.86 197.109 69.3133 197.535 68.86C197.975 68.3933 198.509 68.0333 199.135 67.78C199.762 67.5133 200.469 67.38 201.255 67.38C202.122 67.38 202.875 67.4467 203.515 67.58C204.169 67.7 204.715 67.8133 205.155 67.92V77.2C205.155 78.8 204.742 79.96 203.915 80.68C203.089 81.4 201.835 81.76 200.155 81.76C199.502 81.76 198.882 81.7067 198.295 81.6C197.722 81.4933 197.222 81.3667 196.795 81.22L197.135 79.6C197.509 79.7467 197.962 79.8733 198.495 79.98C199.042 80.1 199.609 80.16 200.195 80.16C201.302 80.16 202.095 79.94 202.575 79.5C203.069 79.06 203.315 78.36 203.315 77.4V76.96ZM203.295 69.24C203.109 69.1867 202.855 69.14 202.535 69.1C202.229 69.0467 201.809 69.02 201.275 69.02C200.275 69.02 199.502 69.3467 198.955 70C198.422 70.6533 198.155 71.52 198.155 72.6C198.155 73.2 198.229 73.7133 198.375 74.14C198.535 74.5667 198.742 74.92 198.995 75.2C199.262 75.48 199.562 75.6867 199.895 75.82C200.242 75.9533 200.595 76.02 200.955 76.02C201.449 76.02 201.902 75.9533 202.315 75.82C202.729 75.6733 203.055 75.5067 203.295 75.32V69.24Z" fill="white"/>
<path d="M220.956 76.62C222.982 76.62 223.996 75.9267 223.996 74.54C223.996 74.1133 223.902 73.7533 223.716 73.46C223.542 73.1533 223.302 72.8933 222.996 72.68C222.689 72.4533 222.336 72.26 221.936 72.1C221.549 71.94 221.136 71.78 220.696 71.62C220.189 71.4467 219.709 71.2533 219.256 71.04C218.802 70.8133 218.409 70.5533 218.076 70.26C217.742 69.9533 217.476 69.5933 217.276 69.18C217.089 68.7667 216.996 68.2667 216.996 67.68C216.996 66.4667 217.409 65.52 218.236 64.84C219.062 64.16 220.202 63.82 221.656 63.82C222.496 63.82 223.256 63.9133 223.936 64.1C224.629 64.2733 225.136 64.4667 225.456 64.68L224.836 66.26C224.556 66.0867 224.136 65.92 223.576 65.76C223.029 65.5867 222.389 65.5 221.656 65.5C221.282 65.5 220.936 65.54 220.616 65.62C220.296 65.7 220.016 65.82 219.776 65.98C219.536 66.14 219.342 66.3467 219.196 66.6C219.062 66.84 218.996 67.1267 218.996 67.46C218.996 67.8333 219.069 68.1467 219.216 68.4C219.362 68.6533 219.569 68.88 219.836 69.08C220.102 69.2667 220.409 69.44 220.756 69.6C221.116 69.76 221.509 69.92 221.936 70.08C222.536 70.32 223.082 70.56 223.576 70.8C224.082 71.04 224.516 71.3267 224.876 71.66C225.249 71.9933 225.536 72.3933 225.736 72.86C225.936 73.3133 226.036 73.8667 226.036 74.52C226.036 75.7333 225.589 76.6667 224.696 77.32C223.816 77.9733 222.569 78.3 220.956 78.3C220.409 78.3 219.902 78.26 219.436 78.18C218.982 78.1133 218.576 78.0333 218.216 77.94C217.856 77.8333 217.542 77.7267 217.276 77.62C217.022 77.5 216.822 77.4 216.676 77.32L217.256 75.72C217.562 75.8933 218.029 76.0867 218.656 76.3C219.282 76.5133 220.049 76.62 220.956 76.62Z" fill="white"/>
<path d="M242.069 72.8C242.069 73.6267 241.949 74.3733 241.709 75.04C241.469 75.7067 241.129 76.28 240.689 76.76C240.262 77.24 239.749 77.6133 239.149 77.88C238.549 78.1333 237.896 78.26 237.189 78.26C236.482 78.26 235.829 78.1333 235.229 77.88C234.629 77.6133 234.109 77.24 233.669 76.76C233.242 76.28 232.909 75.7067 232.669 75.04C232.429 74.3733 232.309 73.6267 232.309 72.8C232.309 71.9867 232.429 71.2467 232.669 70.58C232.909 69.9 233.242 69.32 233.669 68.84C234.109 68.36 234.629 67.9933 235.229 67.74C235.829 67.4733 236.482 67.34 237.189 67.34C237.896 67.34 238.549 67.4733 239.149 67.74C239.749 67.9933 240.262 68.36 240.689 68.84C241.129 69.32 241.469 69.9 241.709 70.58C241.949 71.2467 242.069 71.9867 242.069 72.8ZM240.129 72.8C240.129 71.6267 239.862 70.7 239.329 70.02C238.809 69.3267 238.096 68.98 237.189 68.98C236.282 68.98 235.562 69.3267 235.029 70.02C234.509 70.7 234.249 71.6267 234.249 72.8C234.249 73.9733 234.509 74.9067 235.029 75.6C235.562 76.28 236.282 76.62 237.189 76.62C238.096 76.62 238.809 76.28 239.329 75.6C239.862 74.9067 240.129 73.9733 240.129 72.8Z" fill="white"/>
<path d="M252.435 78.2C251.288 78.1733 250.475 77.9267 249.995 77.46C249.515 76.9933 249.275 76.2667 249.275 75.28V62.8L251.135 62.48V74.98C251.135 75.2867 251.162 75.54 251.215 75.74C251.268 75.94 251.355 76.1 251.475 76.22C251.595 76.34 251.755 76.4333 251.955 76.5C252.155 76.5533 252.402 76.6 252.695 76.64L252.435 78.2Z" fill="white"/>
<path d="M267.693 77.7C267.266 77.8067 266.699 77.92 265.993 78.04C265.299 78.16 264.493 78.22 263.573 78.22C262.773 78.22 262.099 78.1067 261.553 77.88C261.006 77.64 260.566 77.3067 260.233 76.88C259.899 76.4533 259.659 75.9533 259.513 75.38C259.366 74.7933 259.293 74.1467 259.293 73.44V67.6H261.153V73.04C261.153 74.3067 261.353 75.2133 261.753 75.76C262.153 76.3067 262.826 76.58 263.773 76.58C263.973 76.58 264.179 76.5733 264.393 76.56C264.606 76.5467 264.806 76.5333 264.993 76.52C265.179 76.4933 265.346 76.4733 265.493 76.46C265.653 76.4333 265.766 76.4067 265.833 76.38V67.6H267.693V77.7Z" fill="white"/>
<path d="M277.266 67.6H281.206V69.16H277.266V73.96C277.266 74.48 277.306 74.9133 277.386 75.26C277.466 75.5933 277.586 75.86 277.746 76.06C277.906 76.2467 278.106 76.38 278.346 76.46C278.586 76.54 278.866 76.58 279.186 76.58C279.746 76.58 280.192 76.52 280.526 76.4C280.872 76.2667 281.112 76.1733 281.246 76.12L281.606 77.66C281.419 77.7533 281.092 77.8667 280.626 78C280.159 78.1467 279.626 78.22 279.026 78.22C278.319 78.22 277.732 78.1333 277.266 77.96C276.812 77.7733 276.446 77.5 276.166 77.14C275.886 76.78 275.686 76.34 275.566 75.82C275.459 75.2867 275.406 74.6733 275.406 73.98V64.7L277.266 64.38V67.6Z" fill="white"/>
<path d="M290.062 78H288.202V67.6H290.062V78ZM289.122 65.72C288.788 65.72 288.502 65.6133 288.262 65.4C288.035 65.1733 287.922 64.8733 287.922 64.5C287.922 64.1267 288.035 63.8333 288.262 63.62C288.502 63.3933 288.788 63.28 289.122 63.28C289.455 63.28 289.735 63.3933 289.962 63.62C290.202 63.8333 290.322 64.1267 290.322 64.5C290.322 64.8733 290.202 65.1733 289.962 65.4C289.735 65.6133 289.455 65.72 289.122 65.72Z" fill="white"/>
<path d="M307.069 72.8C307.069 73.6267 306.949 74.3733 306.709 75.04C306.469 75.7067 306.129 76.28 305.689 76.76C305.262 77.24 304.749 77.6133 304.149 77.88C303.549 78.1333 302.896 78.26 302.189 78.26C301.482 78.26 300.829 78.1333 300.229 77.88C299.629 77.6133 299.109 77.24 298.669 76.76C298.242 76.28 297.909 75.7067 297.669 75.04C297.429 74.3733 297.309 73.6267 297.309 72.8C297.309 71.9867 297.429 71.2467 297.669 70.58C297.909 69.9 298.242 69.32 298.669 68.84C299.109 68.36 299.629 67.9933 300.229 67.74C300.829 67.4733 301.482 67.34 302.189 67.34C302.896 67.34 303.549 67.4733 304.149 67.74C304.749 67.9933 305.262 68.36 305.689 68.84C306.129 69.32 306.469 69.9 306.709 70.58C306.949 71.2467 307.069 71.9867 307.069 72.8ZM305.129 72.8C305.129 71.6267 304.862 70.7 304.329 70.02C303.809 69.3267 303.096 68.98 302.189 68.98C301.282 68.98 300.562 69.3267 300.029 70.02C299.509 70.7 299.249 71.6267 299.249 72.8C299.249 73.9733 299.509 74.9067 300.029 75.6C300.562 76.28 301.282 76.62 302.189 76.62C303.096 76.62 303.809 76.28 304.329 75.6C304.862 74.9067 305.129 73.9733 305.129 72.8Z" fill="white"/>
<path d="M314.315 67.9C314.742 67.7933 315.308 67.68 316.015 67.56C316.722 67.44 317.535 67.38 318.455 67.38C319.282 67.38 319.968 67.5 320.515 67.74C321.062 67.9667 321.495 68.2933 321.815 68.72C322.148 69.1333 322.382 69.6333 322.515 70.22C322.648 70.8067 322.715 71.4533 322.715 72.16V78H320.855V72.56C320.855 71.92 320.808 71.3733 320.715 70.92C320.635 70.4667 320.495 70.1 320.295 69.82C320.095 69.54 319.828 69.34 319.495 69.22C319.162 69.0867 318.748 69.02 318.255 69.02C318.055 69.02 317.848 69.0267 317.635 69.04C317.422 69.0533 317.215 69.0733 317.015 69.1C316.828 69.1133 316.655 69.1333 316.495 69.16C316.348 69.1867 316.242 69.2067 316.175 69.22V78H314.315V67.9Z" fill="white"/>
<path d="M332.848 76.66C333.608 76.66 334.168 76.56 334.528 76.36C334.902 76.16 335.088 75.84 335.088 75.4C335.088 74.9467 334.908 74.5867 334.548 74.32C334.188 74.0533 333.595 73.7533 332.768 73.42C332.368 73.26 331.981 73.1 331.608 72.94C331.248 72.7667 330.935 72.5667 330.668 72.34C330.401 72.1133 330.188 71.84 330.028 71.52C329.868 71.2 329.788 70.8067 329.788 70.34C329.788 69.42 330.128 68.6933 330.808 68.16C331.488 67.6133 332.415 67.34 333.588 67.34C333.881 67.34 334.175 67.36 334.468 67.4C334.761 67.4267 335.035 67.4667 335.288 67.52C335.541 67.56 335.761 67.6067 335.948 67.66C336.148 67.7133 336.301 67.76 336.408 67.8L336.068 69.4C335.868 69.2933 335.555 69.1867 335.128 69.08C334.701 68.96 334.188 68.9 333.588 68.9C333.068 68.9 332.615 69.0067 332.228 69.22C331.841 69.42 331.648 69.74 331.648 70.18C331.648 70.4067 331.688 70.6067 331.768 70.78C331.861 70.9533 331.995 71.1133 332.168 71.26C332.355 71.3933 332.581 71.52 332.848 71.64C333.115 71.76 333.435 71.8867 333.808 72.02C334.301 72.2067 334.741 72.3933 335.128 72.58C335.515 72.7533 335.841 72.96 336.108 73.2C336.388 73.44 336.602 73.7333 336.748 74.08C336.895 74.4133 336.968 74.8267 336.968 75.32C336.968 76.28 336.608 77.0067 335.888 77.5C335.181 77.9933 334.168 78.24 332.848 78.24C331.928 78.24 331.208 78.16 330.688 78C330.168 77.8533 329.815 77.74 329.628 77.66L329.968 76.06C330.181 76.14 330.521 76.26 330.988 76.42C331.455 76.58 332.075 76.66 332.848 76.66Z" fill="white"/>
</svg>
