<svg width="160" height="35" viewBox="0 0 160 35" fill="none" xmlns="http://www.w3.org/2000/svg">
<path d="M0.790649 19.5382H14.6349V14.8635H12.4594V18.1358H5.41141V11.1777H10.0501V13.1015H11.7402V7.85146H10.0501V9.77528H5.41141V3.37454H12.2437V6.32319H14.3832V1.97213H0.790649V3.28464H2.67851V18.2257H0.790649V19.5382ZM17.3319 19.5382H24.0383V18.2257H21.7369V10.2967C21.7369 9.02013 23.1573 7.52783 24.5057 7.52783C24.7754 7.52783 24.9193 7.56378 25.0811 7.58176V7.65368C24.7035 7.70762 24.3979 8.13913 24.3979 8.7864C24.3979 9.61346 25.0271 10.2248 26.034 10.2248C26.9869 10.2248 27.6162 9.54154 27.6162 8.44479C27.6162 7.00642 26.5914 6.19733 25.0092 6.19733C23.2112 6.19733 22.2583 7.38399 21.7549 8.48074H21.647V6.19733L17.3319 7.06035V8.06721L19.1298 8.40882V18.2257H17.3319V19.5382ZM32.201 3.85999C33.2079 3.85999 33.8192 3.17676 33.8192 2.29576V2.15192C33.8192 1.2889 33.2079 0.605679 32.201 0.605679C31.1762 0.605679 30.5649 1.2889 30.5649 2.15192V2.29576C30.5649 3.17676 31.1762 3.85999 32.201 3.85999ZM29.1085 19.5382H35.3295V18.2257H33.5135V6.19733L29.1085 7.06035V8.06721L30.9245 8.40882V18.2257H29.1085V19.5382ZM43.4203 19.8439C46.351 19.8439 47.9871 18.0819 48.6164 16.3199L47.6275 15.7085C46.9443 17.0211 45.8655 17.974 43.8338 17.974C41.5144 17.974 40.0761 16.3198 40.0761 13.7308V11.6631C40.0761 9.23589 41.6942 7.50985 43.9776 7.50985C44.9845 7.50985 45.6138 7.68964 45.9914 7.88742V7.95934C45.3081 8.26499 44.8586 8.84034 44.8586 9.61346C44.8586 10.5304 45.47 11.2856 46.5667 11.2856C47.6635 11.2856 48.3287 10.5844 48.3287 9.41568C48.3287 7.56379 46.5487 6.19733 43.672 6.19733C39.9322 6.19733 37.2533 8.84034 37.2533 13.0116C37.2533 17.039 39.4827 19.8439 43.4203 19.8439ZM54.8733 19.5382H57.5163L61.328 5.42421H61.4179L65.3734 19.5382H67.9984L72.1697 3.28464H73.4822V1.97213H68.1962V3.28464H70.4077L67.2073 16.6435H67.1174L63.1799 1.97213H60.6447L56.851 16.6435H56.7432L53.5788 3.28464H55.7902V1.97213H49.3895V3.28464H50.702L54.8733 19.5382ZM77.9411 3.85999C78.948 3.85999 79.5413 3.17676 79.5413 2.29576V2.15192C79.5413 1.2889 78.948 0.605679 77.9411 0.605679C76.8983 0.605679 76.305 1.2889 76.305 2.15192V2.29576C76.305 3.17676 76.8983 3.85999 77.9411 3.85999ZM74.8486 19.5382H81.0516V18.2257H79.2536V6.19733L74.8486 7.06035V8.06721L76.6466 8.40882V18.2257H74.8486V19.5382ZM83.1012 19.5382H89.3222V18.2257H87.5062V10.2967C87.5062 8.6965 89.0165 7.94136 90.401 7.94136C92.3607 7.94136 93.2417 9.02013 93.2417 11.2496V18.2257H91.4258V19.5382H97.6467V18.2257H95.8308V11.0878C95.8308 7.83348 94.5722 6.19733 91.3539 6.19733C89.2323 6.19733 87.9557 7.43793 87.5242 8.5167H87.4343V6.19733L83.1012 7.06035V8.06721L84.9172 8.40882V18.2257H83.1012V19.5382ZM99.3548 19.5382H105.576V18.2257H103.76V15.1332L105.845 12.9936L109.208 18.2257H107.643V19.5382H113.451V18.2257H112.138L107.607 11.3395L111.095 7.8155H112.893V6.50299H107.212V7.8155H109.028L105.881 11.1597L103.886 13.3892H103.76V0.156189L99.3548 1.01921V2.02607L101.171 2.36768V18.2257H99.3548V19.5382ZM115.087 19.5382H122.836C127.601 19.5382 130.981 16.5895 130.981 10.7462C130.981 4.92078 127.601 1.97213 122.836 1.97213H115.087V3.28464H116.975V18.2257H115.087V19.5382ZM119.726 3.37454H122.495C125.911 3.37454 127.924 5.55007 127.924 9.03811V12.4722C127.924 15.9603 125.911 18.1358 122.495 18.1358H119.726V3.37454ZM139.503 19.8439C142.452 19.8439 144.196 18.0998 144.825 16.3378L143.836 15.7085C143.189 17.039 142.002 17.974 139.953 17.974C137.669 17.974 136.159 16.3738 136.159 13.6948V12.9936H145.095V12.3464C145.095 8.73246 142.937 6.19733 139.359 6.19733C135.889 6.19733 133.336 8.94821 133.336 13.0116C133.336 17.075 135.584 19.8439 139.503 19.8439ZM136.159 11.3575C136.159 9.07407 137.292 7.56378 139.359 7.56378C141.463 7.56378 142.38 9.11003 142.38 11.4114V11.7171H136.159V11.3575ZM152.089 19.5382H154.049L158.687 7.8155H160V6.50299H155.289V7.8155H156.997L153.761 16.8952H153.653L150.273 7.8155H151.999V6.50299H146.174V7.8155H147.486L152.089 19.5382Z" fill="white"/>
<path d="M0.790649 32.0592C0.790649 33.5747 1.8426 34.27 2.99706 34.27C3.79048 34.27 4.5839 33.8377 4.60172 33.6995C4.6775 33.12 4.70424 32.857 4.70424 32.8392C4.70424 32.7946 4.68196 32.7768 4.61064 32.7724C4.58389 32.7724 4.55715 32.7634 4.53932 32.7634C4.49029 32.7634 4.46355 32.7813 4.45463 32.857L4.36994 33.5836C4.36548 33.6371 3.87071 33.9892 3.17536 33.9892C2.22593 33.9892 1.46372 33.12 1.46372 32.0725C1.46372 30.9493 2.10112 30.1113 2.9926 30.1113C3.81722 30.1113 4.41451 30.7665 4.41451 30.8378C4.41451 30.8913 4.39223 31.3861 4.39223 31.4084C4.39223 31.4708 4.41006 31.4931 4.52595 31.4931C4.6151 31.4931 4.6463 31.4842 4.6463 31.4039C4.6463 31.0875 4.67304 30.2807 4.67304 30.1692C4.67304 30.0801 4.61955 30.0667 4.52595 30.0667C4.42789 30.0667 4.41451 30.0935 4.41451 30.1692V30.3386C4.41451 30.3876 4.39668 30.3876 4.33874 30.3431C4.21393 30.2539 3.77711 29.8884 3.03718 29.8884C1.77128 29.8884 0.790649 30.7442 0.790649 32.0592ZM8.43954 30.0979C8.43954 30.2049 8.47966 30.2138 8.55098 30.2138H8.79168C8.81397 30.2138 8.81397 30.3698 8.81397 30.5615C8.81397 31.0563 8.80951 32.5272 8.80951 32.7322C8.80951 33.4945 8.92094 34.2388 10.1958 34.2388C10.6727 34.2388 11.1942 34.0516 11.4839 33.8822C11.5998 33.8198 11.7291 33.7574 11.7648 33.7574C11.8851 33.7574 12.0055 34.2121 12.1526 34.2121C12.2952 34.2121 12.3041 34.0383 12.3041 33.9937C12.3041 33.8644 12.3264 33.0264 12.3487 32.1706C12.371 31.2613 12.3665 30.2138 12.4155 30.2138H12.5582C12.6607 30.2138 12.6919 30.2049 12.6919 30.1202C12.6919 30.0132 12.6696 29.9865 12.5849 29.9865C12.5225 29.9865 12.2863 30.0043 12.0991 30.0043C11.9119 30.0043 11.5553 29.9865 11.4527 29.9865C11.3725 29.9865 11.3279 29.9954 11.3279 30.0979C11.3279 30.2049 11.3814 30.2138 11.4527 30.2138H11.7648C11.796 30.2138 11.8049 30.45 11.8049 30.7041V32.6074C11.8049 33.5212 11.8049 33.49 11.6533 33.5881C11.4795 33.7084 11.1184 33.9179 10.5925 33.9179C9.71436 33.9179 9.35777 33.5123 9.35777 32.7278C9.35777 32.4648 9.38897 30.2138 9.438 30.2138H9.84363C9.94615 30.2138 9.96397 30.2049 9.96397 30.1202C9.96397 30.0132 9.95506 29.9865 9.87037 29.9865C9.72773 29.9865 9.33102 30.0043 9.14381 30.0043C8.9566 30.0043 8.6535 29.9865 8.55098 29.9865C8.47075 29.9865 8.43954 29.9954 8.43954 30.0979ZM16.3648 31.1053C16.3648 32.5762 18.589 32.1884 18.589 33.2805C18.589 33.6995 18.2146 34.0204 17.7778 34.0204C17.4078 34.0204 16.6946 33.8065 16.6857 33.646L16.6456 33.0576C16.6412 32.9774 16.61 32.9506 16.5297 32.9506H16.4985C16.4049 32.9506 16.4049 32.9908 16.4049 33.0443C16.4049 33.1334 16.4539 33.7307 16.4673 33.958C16.4718 34.0516 17.0334 34.2611 17.7198 34.2611C18.4197 34.2611 19.1373 33.8243 19.1373 33.0398C19.1373 31.5599 16.922 32.0413 16.922 30.9047C16.922 30.4545 17.2696 30.1202 17.7332 30.1202C18.1879 30.1202 18.6737 30.5749 18.6737 30.713C18.6737 30.7665 18.6559 31.0875 18.6559 31.1097C18.6559 31.1721 18.6737 31.2033 18.7941 31.2033C18.9011 31.2033 18.9055 31.1811 18.9055 31.0964C18.9055 30.7799 18.9412 30.1737 18.9412 30.1068C18.9412 30.0043 18.9233 29.9999 18.8075 29.9999C18.7049 29.9999 18.7005 30.0132 18.6916 30.1068C18.6916 30.1425 18.6871 30.2183 18.6693 30.2183C18.6425 30.2183 18.6069 30.2004 18.5757 30.1737C18.2191 29.933 17.9427 29.9062 17.7198 29.9062C17.0379 29.9062 16.3648 30.3921 16.3648 31.1053ZM22.5071 30.7665C22.5071 30.8378 22.5873 30.8378 22.6453 30.8378C22.7121 30.8378 22.73 30.8289 22.7389 30.7487L22.7879 30.2673C22.7924 30.2316 23.0375 30.2049 23.3718 30.2049H24.2589C24.2856 30.2049 24.299 30.4723 24.299 30.7487C24.299 31.3995 24.2722 33.9625 24.2143 33.9625H23.8309C23.7284 33.9625 23.7106 33.9669 23.7106 34.0561C23.7106 34.1631 23.715 34.1853 23.8042 34.1853C23.9468 34.1853 24.3837 34.1675 24.5709 34.1675C24.7581 34.1675 25.1771 34.1853 25.3197 34.1853C25.3955 34.1853 25.4089 34.1541 25.4089 34.0605C25.4089 33.9892 25.3955 33.9625 25.3197 33.9625H24.8784C24.8651 33.9625 24.8651 33.7753 24.8651 33.5747C24.8651 32.7946 24.9007 31.19 24.9007 31.1721C24.9096 30.8423 24.9096 30.2049 24.9542 30.2049H25.6718C25.9883 30.2049 26.3583 30.2183 26.3583 30.2495C26.3583 30.3119 26.336 30.7175 26.336 30.7487C26.336 30.8156 26.3672 30.8378 26.4519 30.8378C26.5366 30.8378 26.5678 30.8378 26.5678 30.7754C26.5678 30.2851 26.5945 30.0489 26.5945 29.933C26.5945 29.8438 26.5544 29.8438 26.4697 29.8438C26.3984 29.8438 26.3761 29.8617 26.3672 29.9419C26.3672 29.9731 26.0819 29.9954 25.7075 29.9954H23.4788C23.1846 29.9954 22.8236 29.9954 22.8236 29.9642V29.9018C22.8236 29.8438 22.7701 29.8438 22.7255 29.8438C22.623 29.8438 22.6141 29.8706 22.6052 29.9553C22.5829 30.2673 22.5071 30.7487 22.5071 30.7665ZM29.8306 32.1661C29.8306 33.5123 30.8736 34.2388 31.881 34.2388C33.1202 34.2388 34.0027 33.3875 34.0027 32.126C34.0027 30.9092 33.2227 29.9196 31.9746 29.9196C30.8112 29.9196 29.8306 30.8066 29.8306 32.1661ZM30.4546 31.9968C30.4546 31.0473 31.0296 30.1291 31.9122 30.1291C32.9107 30.1291 33.3876 31.1231 33.3876 32.0725C33.3876 33.0264 32.8973 34.0249 31.8855 34.0249C30.9984 34.0249 30.4546 33.1156 30.4546 31.9968ZM37.582 34.0561C37.582 34.1631 37.5954 34.1853 37.6845 34.1853C37.7871 34.1853 38.0144 34.1675 38.2016 34.1675C38.3888 34.1675 38.6072 34.1853 38.7499 34.1853C38.8256 34.1853 38.839 34.1541 38.839 34.0605C38.839 33.9892 38.8256 33.9625 38.7499 33.9625H38.3175C38.2952 33.9625 38.2863 33.6772 38.2863 33.3429C38.2863 32.5272 38.3086 31.2658 38.3398 30.4411C38.3487 30.2628 38.3621 30.2762 38.4245 30.4367L39.8776 34.0249C39.9221 34.1229 39.9533 34.2121 40.0024 34.2121C40.047 34.2121 40.0782 34.1631 40.1183 34.0828C40.2654 33.7886 40.3456 33.7708 40.466 33.4766L41.6204 30.5258C41.6784 30.3876 41.6962 30.3252 41.7007 30.5258C41.714 31.0563 41.7319 32.3088 41.7319 32.8749C41.7319 33.432 41.714 33.9625 41.6873 33.9625H41.4065C41.3084 33.9625 41.2772 33.9669 41.2772 34.0561C41.2772 34.1631 41.2906 34.1853 41.3753 34.1853C41.4644 34.1853 41.7764 34.1675 42.0439 34.1675C42.2311 34.1675 42.5698 34.1853 42.7125 34.1853C42.7883 34.1853 42.8016 34.1541 42.8016 34.0605C42.8016 33.9803 42.7749 33.9625 42.6991 33.9625H42.3737C42.3247 33.9625 42.2801 32.2954 42.2801 31.2212V30.6595C42.2801 30.3921 42.2935 30.2138 42.3113 30.1826H42.6055C42.708 30.1826 42.7259 30.1737 42.7259 30.089C42.7259 29.982 42.7169 29.9553 42.6322 29.9553C42.4896 29.9553 42.182 29.9731 41.9948 29.9731H41.6962C41.5937 29.9731 41.5848 29.9998 41.5313 30.1291L40.3099 33.3117C40.2743 33.4142 40.2609 33.4454 40.2119 33.3206L38.9014 30.0489C38.8702 29.9686 38.8435 29.9553 38.7811 29.9553C38.7454 29.9553 38.527 29.9731 38.3888 29.9731C38.1615 29.9731 37.7826 29.9553 37.6934 29.9553C37.631 29.9553 37.631 29.9865 37.631 30.0801C37.631 30.1559 37.631 30.1826 37.6934 30.1826H38.0055C38.1258 30.1826 38.1258 30.1915 38.1258 30.245C38.1258 30.6818 38.0322 32.964 38.0144 33.3429C37.9966 33.6817 37.9966 33.9625 37.9698 33.9625H37.7157C37.6132 33.9625 37.582 33.9669 37.582 34.0561ZM50.718 32.0592C50.718 33.5747 51.7744 34.27 52.9288 34.27C53.7223 34.27 54.5112 33.8377 54.5335 33.6995C54.6048 33.12 54.6316 32.857 54.6316 32.8392C54.6316 32.7946 54.6137 32.7768 54.538 32.7724C54.5112 32.7724 54.4889 32.7634 54.4711 32.7634C54.4176 32.7634 54.3953 32.7813 54.3819 32.857L54.3017 33.5836C54.2928 33.6371 53.8025 33.9892 53.1027 33.9892C52.1532 33.9892 51.391 33.12 51.391 32.0725C51.391 30.9493 52.0284 30.1113 52.9199 30.1113C53.7445 30.1113 54.3463 30.7665 54.3463 30.8378C54.3463 30.8913 54.3195 31.3861 54.3195 31.4084C54.3195 31.4708 54.3374 31.4931 54.4577 31.4931C54.5424 31.4931 54.5736 31.4842 54.5736 31.4039C54.5736 31.0875 54.6004 30.2807 54.6004 30.1692C54.6004 30.0801 54.5513 30.0667 54.4577 30.0667C54.3552 30.0667 54.3463 30.0935 54.3463 30.1692V30.3386C54.3463 30.3876 54.324 30.3876 54.2705 30.3431C54.1457 30.2539 53.7089 29.8884 52.9645 29.8884C51.6986 29.8884 50.718 30.7442 50.718 32.0592ZM58.4025 32.1661C58.4025 33.5123 59.4411 34.2388 60.4485 34.2388C61.6876 34.2388 62.5702 33.3875 62.5702 32.126C62.5702 30.9092 61.7901 29.9196 60.5421 29.9196C59.3787 29.9196 58.4025 30.8066 58.4025 32.1661ZM59.0266 31.9968C59.0266 31.0473 59.5971 30.1291 60.4797 30.1291C61.4781 30.1291 61.9595 31.1231 61.9595 32.0725C61.9595 33.0264 61.4648 34.0249 60.4529 34.0249C59.5659 34.0249 59.0266 33.1156 59.0266 31.9968ZM66.1495 34.0873C66.1495 34.1631 66.1584 34.1943 66.2386 34.1943C66.3055 34.1943 66.8582 34.1675 67.032 34.1675C67.4109 34.1675 67.8032 34.1943 68.1865 34.1943C69.3543 34.1943 70.4197 33.4677 70.4197 32.0592C70.4197 30.713 69.3766 29.9018 68.0216 29.9018C67.772 29.9018 67.2103 29.9731 66.7512 29.9731C66.5373 29.9731 66.3322 29.9686 66.3055 29.9686C66.2253 29.9686 66.2208 30.0132 66.2208 30.089C66.2208 30.1737 66.252 30.1826 66.3055 30.1826L66.7379 30.1692C66.7512 30.1692 66.7512 30.4055 66.7512 30.6373C66.7512 31.1677 66.7111 33.9758 66.6754 33.9758H66.2743C66.1941 33.9758 66.1495 33.9803 66.1495 34.0873ZM67.2995 33.6148C67.2995 32.7501 67.2995 31.8853 67.3039 31.0295C67.3039 30.7754 67.3262 30.1425 67.3441 30.138C67.4733 30.1068 67.7363 30.0979 67.8923 30.0979C69.0334 30.0979 69.7511 31.0964 69.7511 31.9789C69.7511 32.5227 69.7332 33.9937 67.6472 33.9937C67.5313 33.9937 67.3485 33.9937 67.3039 33.9758C67.2995 33.9669 67.2995 33.7886 67.2995 33.6148ZM73.9722 34.0561C73.9722 34.1631 73.99 34.1853 74.0747 34.1853C74.2218 34.1853 74.5561 34.1675 74.8771 34.1675C75.1668 34.1675 75.5234 34.1853 75.6259 34.1853C75.6972 34.1853 75.7106 34.1541 75.7106 34.0605C75.7106 33.9892 75.6972 33.9625 75.6259 33.9625H75.1935C75.149 33.9625 75.1356 32.7902 75.1356 31.9923V31.1499C75.1356 30.8245 75.149 30.1826 75.1935 30.1826H75.5992C75.6972 30.1826 75.7106 30.1737 75.7106 30.089C75.7106 29.982 75.6972 29.9553 75.6259 29.9553C75.4788 29.9553 75.1802 29.9731 74.886 29.9731C74.5249 29.9731 74.2085 29.9553 74.1059 29.9553C74.0257 29.9553 73.9945 29.9642 73.9945 30.0667C73.9945 30.1737 74.0346 30.1826 74.1059 30.1826H74.5205C74.5383 30.1826 74.5695 30.6685 74.5695 31.0785V31.6892C74.5695 32.5094 74.565 33.9625 74.5116 33.9625H74.1015C74.0034 33.9625 73.9722 33.9669 73.9722 34.0561ZM79.2319 34.0561C79.2319 34.1631 79.2364 34.1853 79.3255 34.1853C79.4058 34.1853 79.5752 34.1675 79.8471 34.1675C80.1279 34.1675 80.3775 34.1853 80.5246 34.1853C80.5959 34.1853 80.5959 34.1541 80.5959 34.0605C80.5959 33.9892 80.5959 33.9625 80.5246 33.9625H79.9852C79.9674 33.9625 79.963 33.6772 79.963 33.3429C79.963 32.7501 79.9674 31.8675 79.9674 31.2033C79.9674 30.8735 79.9674 30.6907 79.9719 30.4411C79.9719 30.3252 80.0031 30.3787 80.061 30.4411L83.1322 34.1764C83.1678 34.2166 83.2079 34.279 83.257 34.279C83.306 34.279 83.3372 34.2255 83.3372 34.1229C83.3372 34.0561 83.413 31.4975 83.4174 30.5303C83.4174 30.3431 83.4308 30.1826 83.4442 30.1826H83.725C83.8231 30.1826 83.8498 30.1737 83.8498 30.089C83.8498 29.982 83.8498 29.9553 83.7607 29.9553C83.676 29.9553 83.4798 29.9731 83.2302 29.9731C82.9583 29.9731 82.6017 29.9553 82.5572 29.9553C82.4814 29.9553 82.4814 29.9865 82.4814 30.0801C82.4814 30.1559 82.4814 30.1826 82.5572 30.1826H83.1366C83.1455 30.1826 83.1455 30.4634 83.1455 30.5125C83.1455 31.1409 83.1544 32.2464 83.1544 32.857V33.12C83.1544 33.2448 83.15 33.2805 83.0519 33.1557L80.5157 30.0444C80.4666 29.982 80.4533 29.9553 80.3775 29.9553C80.3418 29.9553 80.1725 29.9731 80.0343 29.9731C79.905 29.9731 79.4236 29.9553 79.3389 29.9553C79.2631 29.9553 79.2498 29.9865 79.2498 30.0801C79.2498 30.1559 79.2631 30.1826 79.3389 30.1826H79.7445C79.7445 30.3921 79.7223 32.3355 79.6911 33.3429C79.6821 33.7441 79.6866 33.9625 79.6376 33.9625H79.3478C79.2498 33.9625 79.2319 33.9669 79.2319 34.0561ZM87.4603 32.0592C87.4603 33.6148 88.5167 34.279 89.6712 34.279C90.5136 34.279 91.4051 33.8332 91.4051 33.695C91.4051 33.49 91.414 33.2939 91.414 33.1379C91.414 32.9061 91.4185 32.7946 91.4764 32.7946H91.6681C91.7305 32.7946 91.7349 32.7189 91.7349 32.6787C91.7349 32.6253 91.7305 32.5718 91.6681 32.5718C91.57 32.5718 91.4051 32.5896 91.1065 32.5896C90.9059 32.5896 90.576 32.5762 90.2685 32.5718C90.2061 32.5718 90.2061 32.652 90.2061 32.701C90.2061 32.7456 90.2194 32.7946 90.2774 32.7946H90.8212C90.839 32.7946 90.8613 32.9328 90.8613 33.1379C90.8613 33.3563 90.8568 33.6193 90.8435 33.7262C90.839 33.7753 90.5493 34.0561 89.845 34.0561C88.8466 34.0561 88.1378 33.12 88.1378 32.0725C88.1378 30.9493 88.8287 30.1113 89.7202 30.1113C90.5626 30.1113 91.0886 30.7041 91.0886 30.7754C91.0886 30.8289 91.0619 31.2613 91.0619 31.2836C91.0619 31.346 91.0797 31.3683 91.2001 31.3683C91.2892 31.3683 91.3204 31.3549 91.3204 31.2747C91.3204 30.9537 91.3382 30.2049 91.3382 30.1202C91.3382 30.0311 91.2937 30.0177 91.2001 30.0177C91.102 30.0177 91.0886 30.0444 91.0886 30.1202V30.2762C91.0886 30.3119 91.0708 30.3252 91.0128 30.2807C90.888 30.1915 90.4468 29.9062 89.7469 29.9062C88.481 29.9062 87.4603 30.6685 87.4603 32.0592ZM99.7805 31.1053C99.7805 32.5762 102 32.1884 102 33.2805C102 33.6995 101.626 34.0204 101.189 34.0204C100.824 34.0204 100.11 33.8065 100.097 33.646L100.061 33.0576C100.057 32.9774 100.026 32.9506 99.941 32.9506H99.9098C99.8162 32.9506 99.8162 32.9908 99.8162 33.0443C99.8162 33.1334 99.8697 33.7307 99.8786 33.958C99.8875 34.0516 100.449 34.2611 101.136 34.2611C101.835 34.2611 102.553 33.8243 102.553 33.0398C102.553 31.5599 100.338 32.0413 100.338 30.9047C100.338 30.4545 100.685 30.1202 101.149 30.1202C101.604 30.1202 102.089 30.5749 102.089 30.713C102.089 30.7665 102.072 31.0875 102.072 31.1097C102.072 31.1721 102.089 31.2033 102.21 31.2033C102.312 31.2033 102.321 31.1811 102.321 31.0964C102.321 30.7799 102.357 30.1737 102.357 30.1068C102.357 30.0043 102.339 29.9999 102.219 29.9999C102.121 29.9999 102.116 30.0132 102.107 30.1068C102.107 30.1425 102.103 30.2183 102.085 30.2183C102.058 30.2183 102.023 30.2004 101.991 30.1737C101.635 29.933 101.358 29.9062 101.136 29.9062C100.454 29.9062 99.7805 30.3921 99.7805 31.1053ZM106.07 32.1661C106.07 33.5123 107.113 34.2388 108.116 34.2388C109.359 34.2388 110.238 33.3875 110.238 32.126C110.238 30.9092 109.458 29.9196 108.209 29.9196C107.051 29.9196 106.07 30.8066 106.07 32.1661ZM106.694 31.9968C106.694 31.0473 107.269 30.1291 108.147 30.1291C109.146 30.1291 109.627 31.1231 109.627 32.0725C109.627 33.0264 109.137 34.0249 108.125 34.0249C107.238 34.0249 106.694 33.1156 106.694 31.9968ZM113.853 34.0561C113.853 34.1631 113.866 34.1853 113.951 34.1853C114.098 34.1853 114.526 34.1675 114.713 34.1675C114.9 34.1675 116.843 34.1853 116.986 34.1853C117.102 34.1853 117.133 34.1764 117.142 34.1007C117.164 33.9179 117.271 33.3117 117.271 33.2582C117.271 33.2003 117.205 33.1869 117.129 33.1824C117.084 33.178 117.049 33.1958 117.04 33.2404L116.968 33.7753C116.946 33.9045 116.942 33.8956 116.843 33.9001C116.772 33.9045 115.658 33.9357 115.02 33.9357C115.003 33.9357 114.98 33.6059 114.98 33.2315V31.502C114.98 30.9404 114.989 30.1826 115.034 30.1826H115.471C115.573 30.1826 115.586 30.1514 115.586 30.0667C115.586 29.9731 115.582 29.9553 115.475 29.9553C115.332 29.9553 114.913 29.9731 114.726 29.9731C114.539 29.9731 114.12 29.9553 114.022 29.9553C113.919 29.9553 113.897 29.9686 113.897 30.0667C113.897 30.1603 113.915 30.1826 114.004 30.1826H114.37C114.387 30.1826 114.401 30.4188 114.401 30.7175V32.1572C114.401 33.022 114.387 33.9625 114.352 33.9625H113.977C113.879 33.9625 113.853 33.9759 113.853 34.0561ZM120.668 30.0979C120.668 30.2049 120.704 30.2138 120.779 30.2138H121.016C121.042 30.2138 121.042 30.3698 121.042 30.5615C121.042 31.0563 121.033 32.5272 121.033 32.7322C121.033 33.4945 121.149 34.2388 122.42 34.2388C122.901 34.2388 123.418 34.0516 123.712 33.8822C123.824 33.8198 123.957 33.7574 123.993 33.7574C124.113 33.7574 124.229 34.2121 124.381 34.2121C124.524 34.2121 124.528 34.0383 124.528 33.9937C124.528 33.8644 124.555 33.0264 124.573 32.1706C124.599 31.2613 124.59 30.2138 124.644 30.2138H124.787C124.885 30.2138 124.916 30.2049 124.916 30.1202C124.916 30.0132 124.898 29.9865 124.809 29.9865C124.746 29.9865 124.51 30.0043 124.323 30.0043C124.136 30.0043 123.779 29.9865 123.681 29.9865C123.601 29.9865 123.556 29.9954 123.556 30.0979C123.556 30.2049 123.605 30.2138 123.681 30.2138H123.993C124.024 30.2138 124.029 30.45 124.029 30.7041V32.6074C124.029 33.5212 124.029 33.49 123.882 33.5881C123.708 33.7084 123.342 33.9179 122.821 33.9179C121.938 33.9179 121.586 33.5123 121.586 32.7278C121.586 32.4648 121.617 30.2138 121.666 30.2138H122.072C122.17 30.2138 122.188 30.2049 122.188 30.1202C122.188 30.0132 122.183 29.9865 122.094 29.9865C121.952 29.9865 121.559 30.0043 121.372 30.0043C121.185 30.0043 120.877 29.9865 120.779 29.9865C120.699 29.9865 120.668 29.9954 120.668 30.0979ZM128.379 30.7665C128.379 30.8378 128.459 30.8378 128.517 30.8378C128.584 30.8378 128.607 30.8289 128.611 30.7487L128.66 30.2673C128.669 30.2316 128.91 30.2049 129.248 30.2049H130.135C130.158 30.2049 130.171 30.4723 130.171 30.7487C130.171 31.3995 130.144 33.9625 130.091 33.9625H129.703C129.605 33.9625 129.583 33.9669 129.583 34.0561C129.583 34.1631 129.592 34.1853 129.676 34.1853C129.823 34.1853 130.26 34.1675 130.447 34.1675C130.635 34.1675 131.049 34.1853 131.196 34.1853C131.268 34.1853 131.281 34.1541 131.281 34.0605C131.281 33.9892 131.268 33.9625 131.196 33.9625H130.751C130.737 33.9625 130.737 33.7753 130.737 33.5747C130.737 32.7946 130.777 31.19 130.777 31.1721C130.782 30.8423 130.782 30.2049 130.826 30.2049H131.544C131.86 30.2049 132.23 30.2183 132.23 30.2495C132.23 30.3119 132.213 30.7175 132.213 30.7487C132.213 30.8156 132.244 30.8378 132.324 30.8378C132.413 30.8378 132.444 30.8378 132.444 30.7754C132.444 30.2851 132.467 30.0489 132.467 29.933C132.467 29.8438 132.431 29.8438 132.342 29.8438C132.275 29.8438 132.248 29.8617 132.244 29.9419C132.244 29.9731 131.954 29.9954 131.58 29.9954H129.355C129.061 29.9954 128.7 29.9954 128.7 29.9642V29.9018C128.7 29.8438 128.642 29.8438 128.598 29.8438C128.5 29.8438 128.486 29.8706 128.482 29.9553C128.455 30.2673 128.379 30.7487 128.379 30.7665ZM135.863 34.0561C135.863 34.1631 135.881 34.1853 135.97 34.1853C136.113 34.1853 136.447 34.1675 136.768 34.1675C137.062 34.1675 137.414 34.1853 137.517 34.1853C137.593 34.1853 137.602 34.1541 137.602 34.0605C137.602 33.9892 137.593 33.9625 137.517 33.9625H137.085C137.04 33.9625 137.031 32.7902 137.031 31.9923V31.1499C137.031 30.8245 137.04 30.1826 137.085 30.1826H137.49C137.593 30.1826 137.602 30.1737 137.602 30.089C137.602 29.982 137.593 29.9553 137.517 29.9553C137.374 29.9553 137.071 29.9731 136.781 29.9731C136.416 29.9731 136.099 29.9553 136.001 29.9553C135.917 29.9553 135.885 29.9642 135.885 30.0667C135.885 30.1737 135.926 30.1826 136.001 30.1826H136.411C136.429 30.1826 136.46 30.6685 136.46 31.0785V31.6892C136.46 32.5094 136.456 33.9625 136.407 33.9625H135.992C135.894 33.9625 135.863 33.9669 135.863 34.0561ZM141.154 32.1661C141.154 33.5123 142.197 34.2388 143.2 34.2388C144.444 34.2388 145.322 33.3875 145.322 32.126C145.322 30.9092 144.542 29.9196 143.294 29.9196C142.135 29.9196 141.154 30.8066 141.154 32.1661ZM141.778 31.9968C141.778 31.0473 142.353 30.1291 143.231 30.1291C144.23 30.1291 144.711 31.1231 144.711 32.0725C144.711 33.0264 144.216 34.0249 143.209 34.0249C142.322 34.0249 141.778 33.1156 141.778 31.9968ZM148.937 34.0561C148.937 34.1631 148.941 34.1853 149.03 34.1853C149.111 34.1853 149.28 34.1675 149.552 34.1675C149.833 34.1675 150.082 34.1853 150.229 34.1853C150.301 34.1853 150.301 34.1541 150.301 34.0605C150.301 33.9892 150.301 33.9625 150.229 33.9625H149.69C149.672 33.9625 149.668 33.6772 149.668 33.3429C149.668 32.7501 149.672 31.8675 149.672 31.2033C149.672 30.8735 149.672 30.6907 149.677 30.4411C149.677 30.3252 149.708 30.3787 149.766 30.4411L152.837 34.1764C152.873 34.2166 152.913 34.279 152.962 34.279C153.011 34.279 153.042 34.2255 153.042 34.1229C153.042 34.0561 153.118 31.4975 153.122 30.5303C153.122 30.3431 153.136 30.1826 153.149 30.1826H153.43C153.528 30.1826 153.555 30.1737 153.555 30.089C153.555 29.982 153.555 29.9553 153.465 29.9553C153.381 29.9553 153.185 29.9731 152.935 29.9731C152.663 29.9731 152.307 29.9553 152.262 29.9553C152.186 29.9553 152.186 29.9865 152.186 30.0801C152.186 30.1559 152.186 30.1826 152.262 30.1826H152.841C152.85 30.1826 152.85 30.4634 152.85 30.5125C152.85 31.1409 152.859 32.2464 152.859 32.857V33.12C152.859 33.2448 152.855 33.2805 152.757 33.1557L150.22 30.0444C150.171 29.982 150.158 29.9553 150.082 29.9553C150.047 29.9553 149.877 29.9731 149.739 29.9731C149.61 29.9731 149.128 29.9553 149.044 29.9553C148.968 29.9553 148.955 29.9865 148.955 30.0801C148.955 30.1559 148.968 30.1826 149.044 30.1826H149.449C149.449 30.3921 149.427 32.3355 149.396 33.3429C149.387 33.7441 149.391 33.9625 149.342 33.9625H149.053C148.955 33.9625 148.937 33.9669 148.937 34.0561ZM157.227 31.1053C157.227 32.5762 159.452 32.1884 159.452 33.2805C159.452 33.6995 159.077 34.0204 158.64 34.0204C158.271 34.0204 157.562 33.8065 157.548 33.646L157.508 33.0576C157.504 32.9774 157.473 32.9506 157.392 32.9506H157.361C157.268 32.9506 157.268 32.9908 157.268 33.0443C157.268 33.1334 157.317 33.7307 157.33 33.958C157.334 34.0516 157.896 34.2611 158.583 34.2611C159.282 34.2611 160 33.8243 160 33.0398C160 31.5599 157.785 32.0413 157.785 30.9047C157.785 30.4545 158.132 30.1202 158.596 30.1202C159.051 30.1202 159.536 30.5749 159.536 30.713C159.536 30.7665 159.519 31.0875 159.519 31.1097C159.519 31.1721 159.536 31.2033 159.657 31.2033C159.764 31.2033 159.768 31.1811 159.768 31.0964C159.768 30.7799 159.808 30.1737 159.808 30.1068C159.808 30.0043 159.786 29.9999 159.67 29.9999C159.568 29.9999 159.563 30.0132 159.559 30.1068C159.559 30.1425 159.55 30.2183 159.532 30.2183C159.505 30.2183 159.47 30.2004 159.438 30.1737C159.082 29.933 158.81 29.9062 158.583 29.9062C157.905 29.9062 157.227 30.3921 157.227 31.1053Z" fill="white"/>
</svg>
