<svg width="90" height="120" viewBox="0 0 90 120" fill="none" xmlns="http://www.w3.org/2000/svg">
<path d="M52.5 31.875V0H5.625C2.50781 0 0 2.50781 0 5.625V114.375C0 117.492 2.50781 120 5.625 120H84.375C87.4922 120 90 117.492 90 114.375V37.5H58.125C55.0313 37.5 52.5 34.9687 52.5 31.875ZM67.5 87.1875C67.5 88.7344 66.2344 90 64.6875 90H25.3125C23.7656 90 22.5 88.7344 22.5 87.1875V85.3125C22.5 83.7656 23.7656 82.5 25.3125 82.5H64.6875C66.2344 82.5 67.5 83.7656 67.5 85.3125V87.1875ZM67.5 72.1875C67.5 73.7344 66.2344 75 64.6875 75H25.3125C23.7656 75 22.5 73.7344 22.5 72.1875V70.3125C22.5 68.7656 23.7656 67.5 25.3125 67.5H64.6875C66.2344 67.5 67.5 68.7656 67.5 70.3125V72.1875ZM67.5 55.3125V57.1875C67.5 58.7344 66.2344 60 64.6875 60H25.3125C23.7656 60 22.5 58.7344 22.5 57.1875V55.3125C22.5 53.7656 23.7656 52.5 25.3125 52.5H64.6875C66.2344 52.5 67.5 53.7656 67.5 55.3125ZM90 28.5703V30H60V0H61.4297C62.9297 0 64.3594 0.585938 65.4141 1.64062L88.3594 24.6094C89.4141 25.6641 90 27.0938 90 28.5703Z" fill="white"/>
</svg>
