<svg xmlns="http://www.w3.org/2000/svg" version="1.1" xmlns:xlink="http://www.w3.org/1999/xlink" xmlns:svgjs="http://svgjs.com/svgjs" width="300" height="560" preserveAspectRatio="none" viewBox="0 0 300 560"><g mask="url(&quot;#SvgjsMask1211&quot;)" fill="none"><use xlink:href="#SvgjsPath1212" x="30" y="30" stroke="#1c538e"></use><use xlink:href="#SvgjsPath1213" x="30" y="90" stroke="#1c538e"></use><use xlink:href="#SvgjsPath1214" x="30" y="150" stroke="#1c538e"></use><use xlink:href="#SvgjsPath1213" x="30" y="210" stroke="#1c538e"></use><use xlink:href="#SvgjsPath1213" x="30" y="270" stroke="#1c538e"></use><use xlink:href="#SvgjsPath1215" x="30" y="330" stroke="#1c538e"></use><use xlink:href="#SvgjsPath1215" x="30" y="390" stroke="#1c538e"></use><use xlink:href="#SvgjsPath1215" x="30" y="450" stroke="#1c538e"></use><use xlink:href="#SvgjsPath1216" x="30" y="510" stroke="#1c538e" stroke-width="3"></use><use xlink:href="#SvgjsPath1215" x="30" y="570" stroke="#1c538e"></use><use xlink:href="#SvgjsPath1215" x="90" y="30" stroke="#1c538e"></use><use xlink:href="#SvgjsPath1214" x="90" y="90" stroke="#1c538e"></use><use xlink:href="#SvgjsPath1214" x="90" y="150" stroke="#1c538e"></use><use xlink:href="#SvgjsPath1214" x="90" y="210" stroke="#1c538e"></use><use xlink:href="#SvgjsPath1213" x="90" y="270" stroke="#1c538e"></use><use xlink:href="#SvgjsPath1215" x="90" y="330" stroke="#1c538e"></use><use xlink:href="#SvgjsPath1215" x="90" y="390" stroke="#1c538e"></use><use xlink:href="#SvgjsPath1214" x="90" y="450" stroke="#1c538e"></use><use xlink:href="#SvgjsPath1217" x="90" y="510" stroke="#1c538e"></use><use xlink:href="#SvgjsPath1214" x="90" y="570" stroke="#1c538e"></use><use xlink:href="#SvgjsPath1213" x="150" y="30" stroke="#1c538e"></use><use xlink:href="#SvgjsPath1213" x="150" y="90" stroke="#1c538e"></use><use xlink:href="#SvgjsPath1213" x="150" y="150" stroke="#1c538e"></use><use xlink:href="#SvgjsPath1212" x="150" y="210" stroke="#1c538e"></use><use xlink:href="#SvgjsPath1217" x="150" y="270" stroke="#1c538e"></use><use xlink:href="#SvgjsPath1214" x="150" y="330" stroke="#1c538e"></use><use xlink:href="#SvgjsPath1213" x="150" y="390" stroke="#1c538e"></use><use xlink:href="#SvgjsPath1215" x="150" y="450" stroke="#1c538e"></use><use xlink:href="#SvgjsPath1213" x="150" y="510" stroke="#1c538e"></use><use xlink:href="#SvgjsPath1213" x="150" y="570" stroke="#1c538e"></use><use xlink:href="#SvgjsPath1215" x="210" y="30" stroke="#1c538e"></use><use xlink:href="#SvgjsPath1215" x="210" y="90" stroke="#1c538e"></use><use xlink:href="#SvgjsPath1215" x="210" y="150" stroke="#1c538e"></use><use xlink:href="#SvgjsPath1213" x="210" y="210" stroke="#1c538e"></use><use xlink:href="#SvgjsPath1212" x="210" y="270" stroke="#1c538e"></use><use xlink:href="#SvgjsPath1217" x="210" y="330" stroke="#1c538e"></use><use xlink:href="#SvgjsPath1215" x="210" y="390" stroke="#1c538e"></use><use xlink:href="#SvgjsPath1215" x="210" y="450" stroke="#1c538e"></use><use xlink:href="#SvgjsPath1215" x="210" y="510" stroke="#1c538e"></use><use xlink:href="#SvgjsPath1213" x="210" y="570" stroke="#1c538e"></use><use xlink:href="#SvgjsPath1217" x="270" y="30" stroke="#1c538e"></use><use xlink:href="#SvgjsPath1215" x="270" y="90" stroke="#1c538e"></use><use xlink:href="#SvgjsPath1213" x="270" y="150" stroke="#1c538e"></use><use xlink:href="#SvgjsPath1217" x="270" y="210" stroke="#1c538e"></use><use xlink:href="#SvgjsPath1215" x="270" y="270" stroke="#1c538e"></use><use xlink:href="#SvgjsPath1215" x="270" y="330" stroke="#1c538e"></use><use xlink:href="#SvgjsPath1213" x="270" y="390" stroke="#1c538e"></use><use xlink:href="#SvgjsPath1215" x="270" y="450" stroke="#1c538e"></use><use xlink:href="#SvgjsPath1215" x="270" y="510" stroke="#1c538e"></use><use xlink:href="#SvgjsPath1214" x="270" y="570" stroke="#1c538e"></use></g><defs><mask id="SvgjsMask1211"><rect width="300" height="560" fill="#ffffff"></rect></mask><path d="M-1 0 a1 1 0 1 0 2 0 a1 1 0 1 0 -2 0z" id="SvgjsPath1212"></path><path d="M-3 0 a3 3 0 1 0 6 0 a3 3 0 1 0 -6 0z" id="SvgjsPath1217"></path><path d="M-5 0 a5 5 0 1 0 10 0 a5 5 0 1 0 -10 0z" id="SvgjsPath1213"></path><path d="M2 -2 L-2 2z" id="SvgjsPath1214"></path><path d="M6 -6 L-6 6z" id="SvgjsPath1215"></path><path d="M30 -30 L-30 30z" id="SvgjsPath1216"></path></defs></svg>